<mxfile host="app.diagrams.net" agent="Mozilla/5.0 (Macintosh; Intel Mac OS X 10_15_7) AppleWebKit/537.36 (KHTML, like Gecko) Chrome/140.0.0.0 Safari/537.36" version="28.2.5">
  <diagram name="第 1 页" id="EBbChyvduwbu0Lc5XHVC">
    <mxGraphModel dx="5829" dy="4036" grid="1" gridSize="10" guides="1" tooltips="1" connect="1" arrows="1" fold="1" page="1" pageScale="1" pageWidth="4681" pageHeight="3300" math="0" shadow="0">
      <root>
        <mxCell id="0" />
        <mxCell id="1" parent="0" />
        <mxCell id="-ABMfCkV0aKxUMDqAIKD-521" value="umul8" style="rounded=1;whiteSpace=wrap;html=1;" vertex="1" parent="1">
          <mxGeometry x="-4155" y="-570" width="70" height="30" as="geometry" />
        </mxCell>
        <mxCell id="-ABMfCkV0aKxUMDqAIKD-130" value="" style="rounded=1;whiteSpace=wrap;html=1;" vertex="1" parent="1">
          <mxGeometry x="-4600" y="-2560" width="510" height="240" as="geometry" />
        </mxCell>
        <mxCell id="420nJrbG_Wwhr8dEqlbW-14" value="" style="edgeStyle=orthogonalEdgeStyle;rounded=0;orthogonalLoop=1;jettySize=auto;html=1;" parent="1" source="420nJrbG_Wwhr8dEqlbW-5" target="420nJrbG_Wwhr8dEqlbW-7" edge="1">
          <mxGeometry relative="1" as="geometry" />
        </mxCell>
        <mxCell id="ZZNHhl0uA356yENOQyxB-1" value="VEC_SIZE" style="rounded=0;whiteSpace=wrap;html=1;fillColor=#fff2cc;strokeColor=#d6b656;" parent="1" vertex="1">
          <mxGeometry x="200" y="130" width="250" height="40" as="geometry" />
        </mxCell>
        <mxCell id="ZZNHhl0uA356yENOQyxB-2" value="VEC_SIZE" style="rounded=0;whiteSpace=wrap;html=1;fillColor=#ffe6cc;strokeColor=#d79b00;" parent="1" vertex="1">
          <mxGeometry x="440" y="130" width="240" height="40" as="geometry" />
        </mxCell>
        <mxCell id="ZZNHhl0uA356yENOQyxB-3" value="VEC_SIZE" style="rounded=0;whiteSpace=wrap;html=1;fillColor=#f8cecc;strokeColor=#b85450;" parent="1" vertex="1">
          <mxGeometry x="680" y="130" width="240" height="40" as="geometry" />
        </mxCell>
        <mxCell id="ZZNHhl0uA356yENOQyxB-4" value="VEC_SIZE" style="rounded=0;whiteSpace=wrap;html=1;fillColor=#e1d5e7;strokeColor=#9673a6;" parent="1" vertex="1">
          <mxGeometry x="920" y="130" width="240" height="40" as="geometry" />
        </mxCell>
        <mxCell id="ZZNHhl0uA356yENOQyxB-9" value="str1" style="text;html=1;align=center;verticalAlign=middle;resizable=0;points=[];autosize=1;strokeColor=none;fillColor=none;" parent="1" vertex="1">
          <mxGeometry x="120" y="135" width="40" height="30" as="geometry" />
        </mxCell>
        <mxCell id="ZZNHhl0uA356yENOQyxB-10" value="str2" style="text;html=1;align=center;verticalAlign=middle;resizable=0;points=[];autosize=1;strokeColor=none;fillColor=none;" parent="1" vertex="1">
          <mxGeometry x="120" y="250" width="40" height="30" as="geometry" />
        </mxCell>
        <mxCell id="ZZNHhl0uA356yENOQyxB-11" value="VEC_SIZE (32B)" style="rounded=0;whiteSpace=wrap;html=1;fillColor=#fff2cc;strokeColor=#d6b656;" parent="1" vertex="1">
          <mxGeometry x="200" y="-330" width="240" height="40" as="geometry" />
        </mxCell>
        <mxCell id="ZZNHhl0uA356yENOQyxB-12" value="VEC_SIZE (32B)" style="rounded=0;whiteSpace=wrap;html=1;fillColor=#fff2cc;strokeColor=#d6b656;" parent="1" vertex="1">
          <mxGeometry x="200" y="-210" width="240" height="40" as="geometry" />
        </mxCell>
        <mxCell id="ZZNHhl0uA356yENOQyxB-13" value="str1" style="text;html=1;align=center;verticalAlign=middle;resizable=0;points=[];autosize=1;strokeColor=none;fillColor=none;" parent="1" vertex="1">
          <mxGeometry x="120" y="-330" width="40" height="30" as="geometry" />
        </mxCell>
        <mxCell id="ZZNHhl0uA356yENOQyxB-14" value="str2" style="text;html=1;align=center;verticalAlign=middle;resizable=0;points=[];autosize=1;strokeColor=none;fillColor=none;" parent="1" vertex="1">
          <mxGeometry x="120" y="-210" width="40" height="30" as="geometry" />
        </mxCell>
        <mxCell id="ZZNHhl0uA356yENOQyxB-29" style="edgeStyle=orthogonalEdgeStyle;rounded=0;orthogonalLoop=1;jettySize=auto;html=1;entryX=0.5;entryY=0;entryDx=0;entryDy=0;" parent="1" source="ZZNHhl0uA356yENOQyxB-15" target="ZZNHhl0uA356yENOQyxB-25" edge="1">
          <mxGeometry relative="1" as="geometry" />
        </mxCell>
        <mxCell id="ZZNHhl0uA356yENOQyxB-15" value="VEC_SIZE" style="rounded=0;whiteSpace=wrap;html=1;fillColor=#fff2cc;strokeColor=#d6b656;" parent="1" vertex="1">
          <mxGeometry x="200" y="500" width="240" height="40" as="geometry" />
        </mxCell>
        <mxCell id="ZZNHhl0uA356yENOQyxB-30" style="edgeStyle=orthogonalEdgeStyle;rounded=0;orthogonalLoop=1;jettySize=auto;html=1;entryX=0.5;entryY=0;entryDx=0;entryDy=0;exitX=0.5;exitY=1;exitDx=0;exitDy=0;" parent="1" source="ZZNHhl0uA356yENOQyxB-16" target="ZZNHhl0uA356yENOQyxB-25" edge="1">
          <mxGeometry relative="1" as="geometry">
            <mxPoint x="560" y="550" as="sourcePoint" />
          </mxGeometry>
        </mxCell>
        <mxCell id="ZZNHhl0uA356yENOQyxB-16" value="VEC_SIZE" style="rounded=0;whiteSpace=wrap;html=1;fillColor=#ffe6cc;strokeColor=#d79b00;" parent="1" vertex="1">
          <mxGeometry x="440" y="500" width="240" height="40" as="geometry" />
        </mxCell>
        <mxCell id="ZZNHhl0uA356yENOQyxB-32" style="edgeStyle=orthogonalEdgeStyle;rounded=0;orthogonalLoop=1;jettySize=auto;html=1;entryX=0.5;entryY=0;entryDx=0;entryDy=0;exitX=0.469;exitY=0.958;exitDx=0;exitDy=0;exitPerimeter=0;" parent="1" source="ZZNHhl0uA356yENOQyxB-17" target="ZZNHhl0uA356yENOQyxB-26" edge="1">
          <mxGeometry relative="1" as="geometry" />
        </mxCell>
        <mxCell id="ZZNHhl0uA356yENOQyxB-17" value="VEC_SIZE" style="rounded=0;whiteSpace=wrap;html=1;fillColor=#f8cecc;strokeColor=#b85450;" parent="1" vertex="1">
          <mxGeometry x="680" y="500" width="250" height="40" as="geometry" />
        </mxCell>
        <mxCell id="ZZNHhl0uA356yENOQyxB-31" style="edgeStyle=orthogonalEdgeStyle;rounded=0;orthogonalLoop=1;jettySize=auto;html=1;entryX=0.5;entryY=0;entryDx=0;entryDy=0;" parent="1" source="ZZNHhl0uA356yENOQyxB-18" target="ZZNHhl0uA356yENOQyxB-26" edge="1">
          <mxGeometry relative="1" as="geometry" />
        </mxCell>
        <mxCell id="ZZNHhl0uA356yENOQyxB-18" value="VEC_SIZE" style="rounded=0;whiteSpace=wrap;html=1;fillColor=#e1d5e7;strokeColor=#9673a6;" parent="1" vertex="1">
          <mxGeometry x="920" y="500" width="240" height="40" as="geometry" />
        </mxCell>
        <mxCell id="ZZNHhl0uA356yENOQyxB-23" value="str1" style="text;html=1;align=center;verticalAlign=middle;resizable=0;points=[];autosize=1;strokeColor=none;fillColor=none;" parent="1" vertex="1">
          <mxGeometry x="120" y="500" width="40" height="30" as="geometry" />
        </mxCell>
        <mxCell id="ZZNHhl0uA356yENOQyxB-33" style="edgeStyle=orthogonalEdgeStyle;rounded=0;orthogonalLoop=1;jettySize=auto;html=1;entryX=0.5;entryY=0;entryDx=0;entryDy=0;exitX=0.5;exitY=1;exitDx=0;exitDy=0;" parent="1" source="ZZNHhl0uA356yENOQyxB-25" target="ZZNHhl0uA356yENOQyxB-27" edge="1">
          <mxGeometry relative="1" as="geometry" />
        </mxCell>
        <mxCell id="ZZNHhl0uA356yENOQyxB-25" value="VEC_SIZE" style="rounded=0;whiteSpace=wrap;html=1;" parent="1" vertex="1">
          <mxGeometry x="320" y="590" width="240" height="40" as="geometry" />
        </mxCell>
        <mxCell id="ZZNHhl0uA356yENOQyxB-34" style="edgeStyle=orthogonalEdgeStyle;rounded=0;orthogonalLoop=1;jettySize=auto;html=1;entryX=0.5;entryY=0;entryDx=0;entryDy=0;exitX=0.5;exitY=1;exitDx=0;exitDy=0;" parent="1" source="ZZNHhl0uA356yENOQyxB-26" target="ZZNHhl0uA356yENOQyxB-27" edge="1">
          <mxGeometry relative="1" as="geometry" />
        </mxCell>
        <mxCell id="ZZNHhl0uA356yENOQyxB-26" value="VEC_SIZE" style="rounded=0;whiteSpace=wrap;html=1;" parent="1" vertex="1">
          <mxGeometry x="800" y="590" width="240" height="40" as="geometry" />
        </mxCell>
        <mxCell id="ZZNHhl0uA356yENOQyxB-27" value="VEC_SIZE" style="rounded=0;whiteSpace=wrap;html=1;" parent="1" vertex="1">
          <mxGeometry x="560" y="680" width="240" height="40" as="geometry" />
        </mxCell>
        <mxCell id="ZZNHhl0uA356yENOQyxB-28" value="MASK(0xFFFFFFFF)" style="rounded=0;whiteSpace=wrap;html=1;dashed=1;dashPattern=8 8;fillColor=#f5f5f5;fontColor=#333333;strokeColor=#666666;" parent="1" vertex="1">
          <mxGeometry x="560" y="760" width="240" height="40" as="geometry" />
        </mxCell>
        <mxCell id="ZZNHhl0uA356yENOQyxB-45" value="" style="group" parent="1" vertex="1" connectable="0">
          <mxGeometry x="120" y="840" width="1080" height="40" as="geometry" />
        </mxCell>
        <mxCell id="ZZNHhl0uA356yENOQyxB-40" value="VEC_SIZE" style="rounded=0;whiteSpace=wrap;html=1;fillColor=#fff2cc;strokeColor=#d6b656;" parent="ZZNHhl0uA356yENOQyxB-45" vertex="1">
          <mxGeometry x="80" width="250" height="40" as="geometry" />
        </mxCell>
        <mxCell id="ZZNHhl0uA356yENOQyxB-41" value="VEC_SIZE" style="rounded=0;whiteSpace=wrap;html=1;fillColor=#ffe6cc;strokeColor=#d79b00;" parent="ZZNHhl0uA356yENOQyxB-45" vertex="1">
          <mxGeometry x="330" width="250" height="40" as="geometry" />
        </mxCell>
        <mxCell id="ZZNHhl0uA356yENOQyxB-42" value="VEC_SIZE" style="rounded=0;whiteSpace=wrap;html=1;fillColor=#f8cecc;strokeColor=#b85450;" parent="ZZNHhl0uA356yENOQyxB-45" vertex="1">
          <mxGeometry x="580" width="250" height="40" as="geometry" />
        </mxCell>
        <mxCell id="ZZNHhl0uA356yENOQyxB-43" value="VEC_SIZE" style="rounded=0;whiteSpace=wrap;html=1;fillColor=#e1d5e7;strokeColor=#9673a6;" parent="ZZNHhl0uA356yENOQyxB-45" vertex="1">
          <mxGeometry x="830" width="250" height="40" as="geometry" />
        </mxCell>
        <mxCell id="ZZNHhl0uA356yENOQyxB-44" value="str1" style="text;html=1;align=center;verticalAlign=middle;resizable=0;points=[];autosize=1;strokeColor=none;fillColor=none;" parent="ZZNHhl0uA356yENOQyxB-45" vertex="1">
          <mxGeometry width="40" height="30" as="geometry" />
        </mxCell>
        <mxCell id="ZZNHhl0uA356yENOQyxB-46" value="" style="group" parent="1" vertex="1" connectable="0">
          <mxGeometry x="120" y="940" width="1080" height="40" as="geometry" />
        </mxCell>
        <mxCell id="ZZNHhl0uA356yENOQyxB-19" value="VEC_SIZE" style="rounded=0;whiteSpace=wrap;html=1;fillColor=#fff2cc;strokeColor=#d6b656;" parent="ZZNHhl0uA356yENOQyxB-46" vertex="1">
          <mxGeometry x="80" width="250" height="40" as="geometry" />
        </mxCell>
        <mxCell id="ZZNHhl0uA356yENOQyxB-20" value="VEC_SIZE" style="rounded=0;whiteSpace=wrap;html=1;fillColor=#ffe6cc;strokeColor=#d79b00;" parent="ZZNHhl0uA356yENOQyxB-46" vertex="1">
          <mxGeometry x="330" width="250" height="40" as="geometry" />
        </mxCell>
        <mxCell id="ZZNHhl0uA356yENOQyxB-21" value="VEC_SIZE" style="rounded=0;whiteSpace=wrap;html=1;fillColor=#f8cecc;strokeColor=#b85450;" parent="ZZNHhl0uA356yENOQyxB-46" vertex="1">
          <mxGeometry x="580" width="250" height="40" as="geometry" />
        </mxCell>
        <mxCell id="ZZNHhl0uA356yENOQyxB-22" value="VEC_SIZE" style="rounded=0;whiteSpace=wrap;html=1;fillColor=#e1d5e7;strokeColor=#9673a6;" parent="ZZNHhl0uA356yENOQyxB-46" vertex="1">
          <mxGeometry x="830" width="250" height="40" as="geometry" />
        </mxCell>
        <mxCell id="ZZNHhl0uA356yENOQyxB-24" value="str2" style="text;html=1;align=center;verticalAlign=middle;resizable=0;points=[];autosize=1;strokeColor=none;fillColor=none;" parent="ZZNHhl0uA356yENOQyxB-46" vertex="1">
          <mxGeometry width="40" height="30" as="geometry" />
        </mxCell>
        <mxCell id="ZZNHhl0uA356yENOQyxB-47" value="MASK(0xFFFFFFFF)" style="rounded=0;whiteSpace=wrap;html=1;dashed=1;dashPattern=8 8;fillColor=#f5f5f5;fontColor=#333333;strokeColor=#666666;" parent="1" vertex="1">
          <mxGeometry x="200" y="1040" width="240" height="40" as="geometry" />
        </mxCell>
        <mxCell id="ZZNHhl0uA356yENOQyxB-50" value="MASK(0xFFFFFFFF)" style="rounded=0;whiteSpace=wrap;html=1;dashed=1;dashPattern=8 8;fillColor=#f5f5f5;fontColor=#333333;strokeColor=#666666;" parent="1" vertex="1">
          <mxGeometry x="450" y="1130" width="250" height="40" as="geometry" />
        </mxCell>
        <mxCell id="ZZNHhl0uA356yENOQyxB-52" value="MASK(0xFFFFFFFF)" style="rounded=0;whiteSpace=wrap;html=1;dashed=1;dashPattern=8 8;fillColor=#f5f5f5;fontColor=#333333;strokeColor=#666666;" parent="1" vertex="1">
          <mxGeometry x="710" y="1210" width="250" height="40" as="geometry" />
        </mxCell>
        <mxCell id="ZZNHhl0uA356yENOQyxB-54" value="VEC_SIZE" style="rounded=0;whiteSpace=wrap;html=1;fillColor=#fff2cc;strokeColor=#d6b656;" parent="1" vertex="1">
          <mxGeometry x="200" y="245" width="250" height="40" as="geometry" />
        </mxCell>
        <mxCell id="ZZNHhl0uA356yENOQyxB-55" value="VEC_SIZE" style="rounded=0;whiteSpace=wrap;html=1;fillColor=#ffe6cc;strokeColor=#d79b00;" parent="1" vertex="1">
          <mxGeometry x="440" y="245" width="240" height="40" as="geometry" />
        </mxCell>
        <mxCell id="ZZNHhl0uA356yENOQyxB-56" value="VEC_SIZE" style="rounded=0;whiteSpace=wrap;html=1;fillColor=#f8cecc;strokeColor=#b85450;" parent="1" vertex="1">
          <mxGeometry x="680" y="245" width="240" height="40" as="geometry" />
        </mxCell>
        <mxCell id="ZZNHhl0uA356yENOQyxB-57" value="VEC_SIZE" style="rounded=0;whiteSpace=wrap;html=1;fillColor=#e1d5e7;strokeColor=#9673a6;" parent="1" vertex="1">
          <mxGeometry x="920" y="245" width="240" height="40" as="geometry" />
        </mxCell>
        <mxCell id="C3YKkwXlwQN1ZLRuggpo-1" value="&lt;font style=&quot;font-size: 28px;&quot;&gt;标准C函数接口&lt;/font&gt;" style="rounded=0;whiteSpace=wrap;html=1;fillColor=#dae8fc;strokeColor=#6c8ebf;fontFamily=Helvetica;" parent="1" vertex="1">
          <mxGeometry x="1518.55" y="40" width="1001.45" height="40" as="geometry" />
        </mxCell>
        <mxCell id="C3YKkwXlwQN1ZLRuggpo-4" value="" style="rounded=0;whiteSpace=wrap;html=1;" parent="1" vertex="1">
          <mxGeometry x="1560" y="100" width="70" height="30" as="geometry" />
        </mxCell>
        <mxCell id="C3YKkwXlwQN1ZLRuggpo-6" value="" style="rounded=0;whiteSpace=wrap;html=1;fillColor=#fad7ac;strokeColor=#b46504;" parent="1" vertex="1">
          <mxGeometry x="1560" y="140" width="70" height="30" as="geometry" />
        </mxCell>
        <mxCell id="C3YKkwXlwQN1ZLRuggpo-7" value="" style="rounded=0;whiteSpace=wrap;html=1;fillColor=#cdeb8b;strokeColor=#36393d;" parent="1" vertex="1">
          <mxGeometry x="1560" y="180" width="70" height="30" as="geometry" />
        </mxCell>
        <mxCell id="C3YKkwXlwQN1ZLRuggpo-9" value="Generic" style="text;html=1;align=left;verticalAlign=middle;resizable=0;points=[];autosize=1;strokeColor=none;fillColor=none;" parent="1" vertex="1">
          <mxGeometry x="1640" y="100" width="70" height="30" as="geometry" />
        </mxCell>
        <mxCell id="C3YKkwXlwQN1ZLRuggpo-10" value="x86" style="text;html=1;align=left;verticalAlign=middle;resizable=0;points=[];autosize=1;strokeColor=none;fillColor=none;" parent="1" vertex="1">
          <mxGeometry x="1640" y="140" width="40" height="30" as="geometry" />
        </mxCell>
        <mxCell id="C3YKkwXlwQN1ZLRuggpo-11" value="RISC-V" style="text;html=1;align=left;verticalAlign=middle;resizable=0;points=[];autosize=1;strokeColor=none;fillColor=none;" parent="1" vertex="1">
          <mxGeometry x="1640" y="180" width="60" height="30" as="geometry" />
        </mxCell>
        <mxCell id="C3YKkwXlwQN1ZLRuggpo-12" value="&lt;font style=&quot;font-size: 24px;&quot;&gt;IFunc&lt;/font&gt;" style="ellipse;whiteSpace=wrap;html=1;fillColor=#ffcccc;strokeColor=#36393d;" parent="1" vertex="1">
          <mxGeometry x="1894.28" y="120" width="250" height="70" as="geometry" />
        </mxCell>
        <mxCell id="C3YKkwXlwQN1ZLRuggpo-13" value="" style="rounded=0;whiteSpace=wrap;html=1;dashed=1;dashPattern=8 8;" parent="1" vertex="1">
          <mxGeometry x="1518.55" y="245" width="1001.45" height="405" as="geometry" />
        </mxCell>
        <mxCell id="C3YKkwXlwQN1ZLRuggpo-18" value="" style="group;fillColor=#fad7ac;strokeColor=#b46504;" parent="1" vertex="1" connectable="0">
          <mxGeometry x="1535" y="280" width="195" height="350" as="geometry" />
        </mxCell>
        <mxCell id="C3YKkwXlwQN1ZLRuggpo-14" value="&lt;p&gt;&lt;br&gt;&lt;/p&gt;" style="rounded=0;whiteSpace=wrap;html=1;align=left;fillColor=#f5f5f5;strokeColor=#666666;fontColor=#333333;" parent="C3YKkwXlwQN1ZLRuggpo-18" vertex="1">
          <mxGeometry width="195" height="350" as="geometry" />
        </mxCell>
        <mxCell id="C3YKkwXlwQN1ZLRuggpo-17" value="&lt;font style=&quot;font-size: 21px;&quot;&gt;内存函数&lt;/font&gt;" style="text;html=1;align=center;verticalAlign=middle;whiteSpace=wrap;rounded=0;" parent="C3YKkwXlwQN1ZLRuggpo-18" vertex="1">
          <mxGeometry x="42.5" width="110" height="40" as="geometry" />
        </mxCell>
        <mxCell id="C3YKkwXlwQN1ZLRuggpo-44" value="&lt;font style=&quot;font-size: 18px;&quot;&gt;memcpy&lt;/font&gt;" style="rounded=0;whiteSpace=wrap;html=1;fillColor=#cdeb8b;strokeColor=#36393d;" parent="C3YKkwXlwQN1ZLRuggpo-18" vertex="1">
          <mxGeometry x="12.5" y="40" width="170" height="30" as="geometry" />
        </mxCell>
        <mxCell id="C3YKkwXlwQN1ZLRuggpo-45" value="&lt;font style=&quot;font-size: 18px;&quot;&gt;memmove&lt;/font&gt;" style="rounded=0;whiteSpace=wrap;html=1;fillColor=#cdeb8b;strokeColor=#36393d;" parent="C3YKkwXlwQN1ZLRuggpo-18" vertex="1">
          <mxGeometry x="12.5" y="80" width="170" height="30" as="geometry" />
        </mxCell>
        <mxCell id="C3YKkwXlwQN1ZLRuggpo-46" value="&lt;font style=&quot;font-size: 18px;&quot;&gt;memset&lt;/font&gt;" style="rounded=0;whiteSpace=wrap;html=1;fillColor=#cdeb8b;strokeColor=#36393d;" parent="C3YKkwXlwQN1ZLRuggpo-18" vertex="1">
          <mxGeometry x="12.5" y="120" width="170" height="30" as="geometry" />
        </mxCell>
        <mxCell id="C3YKkwXlwQN1ZLRuggpo-47" value="&lt;font style=&quot;font-size: 18px;&quot;&gt;memchr&lt;/font&gt;" style="rounded=0;whiteSpace=wrap;html=1;fillColor=#cdeb8b;strokeColor=#36393d;" parent="C3YKkwXlwQN1ZLRuggpo-18" vertex="1">
          <mxGeometry x="12.5" y="160" width="170" height="30" as="geometry" />
        </mxCell>
        <mxCell id="C3YKkwXlwQN1ZLRuggpo-49" value="&lt;font style=&quot;font-size: 18px;&quot;&gt;memcpy&lt;/font&gt;" style="rounded=0;whiteSpace=wrap;html=1;fillColor=#fad7ac;strokeColor=#b46504;" parent="C3YKkwXlwQN1ZLRuggpo-18" vertex="1">
          <mxGeometry x="12.5" y="200" width="170" height="30" as="geometry" />
        </mxCell>
        <mxCell id="C3YKkwXlwQN1ZLRuggpo-54" value="&lt;font style=&quot;font-size: 18px;&quot;&gt;wmemchr&lt;/font&gt;" style="rounded=0;whiteSpace=wrap;html=1;fillColor=#fad7ac;strokeColor=#b46504;" parent="C3YKkwXlwQN1ZLRuggpo-18" vertex="1">
          <mxGeometry x="12.5" y="240" width="170" height="30" as="geometry" />
        </mxCell>
        <mxCell id="C3YKkwXlwQN1ZLRuggpo-19" value="" style="group" parent="1" vertex="1" connectable="0">
          <mxGeometry x="1760" y="280" width="195" height="350" as="geometry" />
        </mxCell>
        <mxCell id="C3YKkwXlwQN1ZLRuggpo-20" value="&lt;p&gt;&lt;br&gt;&lt;/p&gt;" style="rounded=0;whiteSpace=wrap;html=1;align=left;fillColor=#f5f5f5;strokeColor=#666666;fontColor=#333333;" parent="C3YKkwXlwQN1ZLRuggpo-19" vertex="1">
          <mxGeometry width="195" height="350" as="geometry" />
        </mxCell>
        <mxCell id="C3YKkwXlwQN1ZLRuggpo-21" value="&lt;font style=&quot;font-size: 21px;&quot;&gt;字符函数&lt;/font&gt;" style="text;html=1;align=center;verticalAlign=middle;whiteSpace=wrap;rounded=0;" parent="C3YKkwXlwQN1ZLRuggpo-19" vertex="1">
          <mxGeometry x="42.5" width="110" height="40" as="geometry" />
        </mxCell>
        <mxCell id="C3YKkwXlwQN1ZLRuggpo-28" value="&lt;font style=&quot;font-size: 18px;&quot;&gt;strcpy&lt;/font&gt;" style="rounded=0;whiteSpace=wrap;html=1;fillColor=#cdeb8b;strokeColor=#36393d;" parent="C3YKkwXlwQN1ZLRuggpo-19" vertex="1">
          <mxGeometry x="12.5" y="40" width="170" height="30" as="geometry" />
        </mxCell>
        <mxCell id="C3YKkwXlwQN1ZLRuggpo-33" value="&lt;font style=&quot;font-size: 18px;&quot;&gt;strlen&lt;/font&gt;" style="rounded=0;whiteSpace=wrap;html=1;fillColor=#cdeb8b;strokeColor=#36393d;" parent="C3YKkwXlwQN1ZLRuggpo-19" vertex="1">
          <mxGeometry x="12.5" y="80" width="170" height="30" as="geometry" />
        </mxCell>
        <mxCell id="C3YKkwXlwQN1ZLRuggpo-34" value="&lt;font style=&quot;font-size: 18px;&quot;&gt;strnlen&lt;/font&gt;" style="rounded=0;whiteSpace=wrap;html=1;fillColor=#cdeb8b;strokeColor=#36393d;" parent="C3YKkwXlwQN1ZLRuggpo-19" vertex="1">
          <mxGeometry x="12.5" y="120" width="170" height="30" as="geometry" />
        </mxCell>
        <mxCell id="C3YKkwXlwQN1ZLRuggpo-35" value="&lt;font style=&quot;font-size: 18px;&quot;&gt;strcmp&lt;/font&gt;" style="rounded=0;whiteSpace=wrap;html=1;fillColor=#cdeb8b;strokeColor=#36393d;" parent="C3YKkwXlwQN1ZLRuggpo-19" vertex="1">
          <mxGeometry x="12.5" y="160" width="170" height="30" as="geometry" />
        </mxCell>
        <mxCell id="C3YKkwXlwQN1ZLRuggpo-50" value="&lt;font style=&quot;font-size: 18px;&quot;&gt;wcstrcmp&lt;/font&gt;" style="rounded=0;whiteSpace=wrap;html=1;fillColor=#fad7ac;strokeColor=#b46504;" parent="C3YKkwXlwQN1ZLRuggpo-19" vertex="1">
          <mxGeometry x="12.5" y="200" width="170" height="30" as="geometry" />
        </mxCell>
        <mxCell id="C3YKkwXlwQN1ZLRuggpo-51" value="&lt;font style=&quot;font-size: 18px;&quot;&gt;wc&lt;span style=&quot;color: rgba(0, 0, 0, 0); font-family: monospace; font-size: 0px; text-align: start; text-wrap-mode: nowrap;&quot;&gt;%3CmxGraphModel%3E%3Croot%3E%3CmxCell%20id%3D%220%22%2F%3E%3CmxCell%20id%3D%221%22%20parent%3D%220%22%2F%3E%3CmxCell%20id%3D%222%22%20value%3D%22%26lt%3Bfont%20style%3D%26quot%3Bfont-size%3A%2018px%3B%26quot%3B%26gt%3Bwcstrcmp%26lt%3B%2Ffont%26gt%3B%22%20style%3D%22rounded%3D0%3BwhiteSpace%3Dwrap%3Bhtml%3D1%3BfillColor%3D%23fad7ac%3BstrokeColor%3D%23b46504%3B%22%20vertex%3D%221%22%20parent%3D%221%22%3E%3CmxGeometry%20x%3D%221772.5%22%20y%3D%22480%22%20width%3D%22170%22%20height%3D%2230%22%20as%3D%22geometry%22%2F%3E%3C%2FmxCell%3E%3C%2Froot%3E%3C%2FmxGraphModel%3E&lt;/span&gt;slen&lt;/font&gt;" style="rounded=0;whiteSpace=wrap;html=1;fillColor=#fad7ac;strokeColor=#b46504;" parent="C3YKkwXlwQN1ZLRuggpo-19" vertex="1">
          <mxGeometry x="12.5" y="240" width="170" height="30" as="geometry" />
        </mxCell>
        <mxCell id="C3YKkwXlwQN1ZLRuggpo-52" value="&lt;font style=&quot;font-size: 18px;&quot;&gt;wcsnlen&lt;/font&gt;" style="rounded=0;whiteSpace=wrap;html=1;fillColor=#fad7ac;strokeColor=#b46504;" parent="C3YKkwXlwQN1ZLRuggpo-19" vertex="1">
          <mxGeometry x="12.5" y="280" width="170" height="30" as="geometry" />
        </mxCell>
        <mxCell id="C3YKkwXlwQN1ZLRuggpo-22" value="" style="group;fillColor=#ffe6cc;strokeColor=#d79b00;" parent="1" vertex="1" connectable="0">
          <mxGeometry x="1990" y="280" width="195" height="350" as="geometry" />
        </mxCell>
        <mxCell id="C3YKkwXlwQN1ZLRuggpo-23" value="&lt;p&gt;&lt;br&gt;&lt;/p&gt;" style="rounded=0;whiteSpace=wrap;html=1;align=left;fillColor=#f5f5f5;strokeColor=#666666;fontColor=#333333;" parent="C3YKkwXlwQN1ZLRuggpo-22" vertex="1">
          <mxGeometry width="195" height="350" as="geometry" />
        </mxCell>
        <mxCell id="C3YKkwXlwQN1ZLRuggpo-24" value="&lt;span style=&quot;font-size: 21px;&quot;&gt;线程函数&lt;/span&gt;" style="text;html=1;align=center;verticalAlign=middle;whiteSpace=wrap;rounded=0;" parent="C3YKkwXlwQN1ZLRuggpo-22" vertex="1">
          <mxGeometry x="42.5" width="110" height="40" as="geometry" />
        </mxCell>
        <mxCell id="C3YKkwXlwQN1ZLRuggpo-37" value="&lt;font style=&quot;font-size: 18px;&quot;&gt;pthread_spin_lock&lt;/font&gt;" style="rounded=0;whiteSpace=wrap;html=1;fillColor=#fad7ac;strokeColor=#b46504;" parent="C3YKkwXlwQN1ZLRuggpo-22" vertex="1">
          <mxGeometry x="12.5" y="40" width="170" height="30" as="geometry" />
        </mxCell>
        <mxCell id="C3YKkwXlwQN1ZLRuggpo-42" value="&lt;span style=&quot;font-size: 18px;&quot;&gt;pthread_spin_unlock&lt;/span&gt;" style="rounded=0;whiteSpace=wrap;html=1;fillColor=#fad7ac;strokeColor=#b46504;" parent="C3YKkwXlwQN1ZLRuggpo-22" vertex="1">
          <mxGeometry x="12.5" y="80" width="170" height="30" as="geometry" />
        </mxCell>
        <mxCell id="C3YKkwXlwQN1ZLRuggpo-43" value="&lt;span style=&quot;font-size: 18px;&quot;&gt;pthread_spin_trylock&lt;/span&gt;" style="rounded=0;whiteSpace=wrap;html=1;fillColor=#fad7ac;strokeColor=#b46504;" parent="C3YKkwXlwQN1ZLRuggpo-22" vertex="1">
          <mxGeometry x="12.5" y="120" width="170" height="30" as="geometry" />
        </mxCell>
        <mxCell id="C3YKkwXlwQN1ZLRuggpo-25" value="" style="group" parent="1" vertex="1" connectable="0">
          <mxGeometry x="2220" y="280" width="195" height="220" as="geometry" />
        </mxCell>
        <mxCell id="C3YKkwXlwQN1ZLRuggpo-26" value="&lt;p&gt;&lt;br&gt;&lt;/p&gt;" style="rounded=0;whiteSpace=wrap;html=1;align=left;fillColor=#f5f5f5;strokeColor=#666666;fontColor=#333333;" parent="C3YKkwXlwQN1ZLRuggpo-25" vertex="1">
          <mxGeometry width="195" height="220" as="geometry" />
        </mxCell>
        <mxCell id="C3YKkwXlwQN1ZLRuggpo-27" value="&lt;font style=&quot;font-size: 21px;&quot;&gt;数学函数&lt;/font&gt;" style="text;html=1;align=center;verticalAlign=middle;whiteSpace=wrap;rounded=0;" parent="C3YKkwXlwQN1ZLRuggpo-25" vertex="1">
          <mxGeometry x="42.5" width="110" height="40" as="geometry" />
        </mxCell>
        <mxCell id="C3YKkwXlwQN1ZLRuggpo-53" value="&lt;font style=&quot;font-size: 18px;&quot;&gt;pthread_spin_lock&lt;/font&gt;" style="rounded=0;whiteSpace=wrap;html=1;fillColor=#fad7ac;strokeColor=#b46504;" parent="C3YKkwXlwQN1ZLRuggpo-25" vertex="1">
          <mxGeometry x="12.5" y="40" width="170" height="30" as="geometry" />
        </mxCell>
        <mxCell id="420nJrbG_Wwhr8dEqlbW-12" value="" style="edgeStyle=orthogonalEdgeStyle;rounded=0;orthogonalLoop=1;jettySize=auto;html=1;" parent="1" source="420nJrbG_Wwhr8dEqlbW-7" target="420nJrbG_Wwhr8dEqlbW-11" edge="1">
          <mxGeometry relative="1" as="geometry" />
        </mxCell>
        <mxCell id="420nJrbG_Wwhr8dEqlbW-17" value="" style="edgeStyle=orthogonalEdgeStyle;rounded=0;orthogonalLoop=1;jettySize=auto;html=1;" parent="1" source="420nJrbG_Wwhr8dEqlbW-7" target="420nJrbG_Wwhr8dEqlbW-16" edge="1">
          <mxGeometry relative="1" as="geometry" />
        </mxCell>
        <mxCell id="420nJrbG_Wwhr8dEqlbW-7" value="*PTR1 != *PTR2&amp;nbsp; ?&lt;div&gt;meet the end ?&lt;/div&gt;" style="rhombus;whiteSpace=wrap;html=1;" parent="1" vertex="1">
          <mxGeometry x="-35" y="2330" width="390" height="110" as="geometry" />
        </mxCell>
        <mxCell id="420nJrbG_Wwhr8dEqlbW-11" value="End" style="rounded=1;whiteSpace=wrap;html=1;" parent="1" vertex="1">
          <mxGeometry x="100" y="2490" width="120" height="60" as="geometry" />
        </mxCell>
        <mxCell id="420nJrbG_Wwhr8dEqlbW-18" style="edgeStyle=orthogonalEdgeStyle;rounded=0;orthogonalLoop=1;jettySize=auto;html=1;exitX=0.5;exitY=0;exitDx=0;exitDy=0;entryX=0.5;entryY=0;entryDx=0;entryDy=0;" parent="1" source="420nJrbG_Wwhr8dEqlbW-16" target="420nJrbG_Wwhr8dEqlbW-25" edge="1">
          <mxGeometry relative="1" as="geometry">
            <mxPoint x="160" y="2130" as="targetPoint" />
            <Array as="points">
              <mxPoint x="525" y="1970" />
              <mxPoint x="160" y="1970" />
              <mxPoint x="160" y="1990" />
            </Array>
          </mxGeometry>
        </mxCell>
        <mxCell id="420nJrbG_Wwhr8dEqlbW-16" value="PTR1 += VEC_SIZE&lt;div&gt;PTR1 += VEC_SIZE&lt;/div&gt;" style="whiteSpace=wrap;html=1;" parent="1" vertex="1">
          <mxGeometry x="410" y="2175" width="230" height="80" as="geometry" />
        </mxCell>
        <mxCell id="420nJrbG_Wwhr8dEqlbW-26" value="" style="edgeStyle=orthogonalEdgeStyle;rounded=0;orthogonalLoop=1;jettySize=auto;html=1;" parent="1" source="420nJrbG_Wwhr8dEqlbW-19" target="420nJrbG_Wwhr8dEqlbW-25" edge="1">
          <mxGeometry relative="1" as="geometry" />
        </mxCell>
        <mxCell id="420nJrbG_Wwhr8dEqlbW-19" value="Start" style="rounded=1;whiteSpace=wrap;html=1;" parent="1" vertex="1">
          <mxGeometry x="100" y="1870" width="120" height="60" as="geometry" />
        </mxCell>
        <mxCell id="420nJrbG_Wwhr8dEqlbW-28" style="edgeStyle=orthogonalEdgeStyle;rounded=0;orthogonalLoop=1;jettySize=auto;html=1;entryX=0.5;entryY=0;entryDx=0;entryDy=0;" parent="1" source="420nJrbG_Wwhr8dEqlbW-25" target="420nJrbG_Wwhr8dEqlbW-5" edge="1">
          <mxGeometry relative="1" as="geometry" />
        </mxCell>
        <mxCell id="420nJrbG_Wwhr8dEqlbW-25" value="set vlen" style="whiteSpace=wrap;html=1;" parent="1" vertex="1">
          <mxGeometry x="45" y="2000" width="230" height="80" as="geometry" />
        </mxCell>
        <mxCell id="420nJrbG_Wwhr8dEqlbW-35" value="" style="edgeStyle=orthogonalEdgeStyle;rounded=0;orthogonalLoop=1;jettySize=auto;html=1;" parent="1" source="420nJrbG_Wwhr8dEqlbW-37" target="420nJrbG_Wwhr8dEqlbW-38" edge="1">
          <mxGeometry relative="1" as="geometry" />
        </mxCell>
        <mxCell id="420nJrbG_Wwhr8dEqlbW-36" value="" style="edgeStyle=orthogonalEdgeStyle;rounded=0;orthogonalLoop=1;jettySize=auto;html=1;" parent="1" source="420nJrbG_Wwhr8dEqlbW-37" target="420nJrbG_Wwhr8dEqlbW-40" edge="1">
          <mxGeometry relative="1" as="geometry" />
        </mxCell>
        <mxCell id="420nJrbG_Wwhr8dEqlbW-37" value="*PTR1 != *PTR2&amp;nbsp; ?&lt;div&gt;meet the end ?&lt;/div&gt;" style="rhombus;whiteSpace=wrap;html=1;" parent="1" vertex="1">
          <mxGeometry x="1015" y="2630" width="390" height="110" as="geometry" />
        </mxCell>
        <mxCell id="420nJrbG_Wwhr8dEqlbW-38" value="End" style="rounded=1;whiteSpace=wrap;html=1;" parent="1" vertex="1">
          <mxGeometry x="1150" y="2785" width="120" height="60" as="geometry" />
        </mxCell>
        <mxCell id="420nJrbG_Wwhr8dEqlbW-139" style="edgeStyle=orthogonalEdgeStyle;rounded=0;orthogonalLoop=1;jettySize=auto;html=1;entryX=1;entryY=0.5;entryDx=0;entryDy=0;" parent="1" source="420nJrbG_Wwhr8dEqlbW-40" target="420nJrbG_Wwhr8dEqlbW-100" edge="1">
          <mxGeometry relative="1" as="geometry" />
        </mxCell>
        <mxCell id="420nJrbG_Wwhr8dEqlbW-40" value="PTR1 += 4 * VEC_SIZE&lt;div&gt;PTR1 += 4 * VEC_SIZE&lt;/div&gt;" style="whiteSpace=wrap;html=1;" parent="1" vertex="1">
          <mxGeometry x="1800" y="2415" width="230" height="80" as="geometry" />
        </mxCell>
        <mxCell id="420nJrbG_Wwhr8dEqlbW-41" value="" style="edgeStyle=orthogonalEdgeStyle;rounded=0;orthogonalLoop=1;jettySize=auto;html=1;" parent="1" source="420nJrbG_Wwhr8dEqlbW-42" target="420nJrbG_Wwhr8dEqlbW-44" edge="1">
          <mxGeometry relative="1" as="geometry" />
        </mxCell>
        <mxCell id="420nJrbG_Wwhr8dEqlbW-42" value="Start" style="rounded=1;whiteSpace=wrap;html=1;" parent="1" vertex="1">
          <mxGeometry x="1150" y="1420" width="120" height="60" as="geometry" />
        </mxCell>
        <mxCell id="420nJrbG_Wwhr8dEqlbW-71" style="edgeStyle=orthogonalEdgeStyle;rounded=0;orthogonalLoop=1;jettySize=auto;html=1;entryX=0.5;entryY=0;entryDx=0;entryDy=0;" parent="1" source="420nJrbG_Wwhr8dEqlbW-44" target="420nJrbG_Wwhr8dEqlbW-63" edge="1">
          <mxGeometry relative="1" as="geometry" />
        </mxCell>
        <mxCell id="420nJrbG_Wwhr8dEqlbW-44" value="set vlen" style="whiteSpace=wrap;html=1;" parent="1" vertex="1">
          <mxGeometry x="1095" y="1550" width="230" height="80" as="geometry" />
        </mxCell>
        <mxCell id="420nJrbG_Wwhr8dEqlbW-59" value="" style="group" parent="1" vertex="1" connectable="0">
          <mxGeometry x="-40" y="2110" width="400" height="180" as="geometry" />
        </mxCell>
        <mxCell id="420nJrbG_Wwhr8dEqlbW-5" value="" style="rounded=0;whiteSpace=wrap;html=1;" parent="420nJrbG_Wwhr8dEqlbW-59" vertex="1">
          <mxGeometry width="400" height="180" as="geometry" />
        </mxCell>
        <mxCell id="420nJrbG_Wwhr8dEqlbW-1" value="VEC_SIZE (32B)" style="rounded=0;whiteSpace=wrap;html=1;fillColor=#fff2cc;strokeColor=#d6b656;" parent="420nJrbG_Wwhr8dEqlbW-59" vertex="1">
          <mxGeometry x="100" y="65" width="240" height="40" as="geometry" />
        </mxCell>
        <mxCell id="420nJrbG_Wwhr8dEqlbW-2" value="VEC_SIZE (32B)" style="rounded=0;whiteSpace=wrap;html=1;fillColor=#fff2cc;strokeColor=#d6b656;" parent="420nJrbG_Wwhr8dEqlbW-59" vertex="1">
          <mxGeometry x="100" y="125" width="240" height="40" as="geometry" />
        </mxCell>
        <mxCell id="420nJrbG_Wwhr8dEqlbW-3" value="PTR1" style="text;html=1;align=center;verticalAlign=middle;resizable=0;points=[];autosize=1;strokeColor=none;fillColor=none;" parent="420nJrbG_Wwhr8dEqlbW-59" vertex="1">
          <mxGeometry x="35" y="75" width="50" height="30" as="geometry" />
        </mxCell>
        <mxCell id="420nJrbG_Wwhr8dEqlbW-4" value="PTR2" style="text;html=1;align=center;verticalAlign=middle;resizable=0;points=[];autosize=1;strokeColor=none;fillColor=none;" parent="420nJrbG_Wwhr8dEqlbW-59" vertex="1">
          <mxGeometry x="35" y="130" width="50" height="30" as="geometry" />
        </mxCell>
        <mxCell id="420nJrbG_Wwhr8dEqlbW-58" value="compare a VLEN size" style="text;html=1;align=center;verticalAlign=middle;resizable=0;points=[];autosize=1;strokeColor=none;fillColor=none;" parent="420nJrbG_Wwhr8dEqlbW-59" vertex="1">
          <mxGeometry x="125" y="20" width="140" height="30" as="geometry" />
        </mxCell>
        <mxCell id="420nJrbG_Wwhr8dEqlbW-62" value="" style="group" parent="1" vertex="1" connectable="0">
          <mxGeometry x="1010" y="1680" width="400" height="180" as="geometry" />
        </mxCell>
        <mxCell id="420nJrbG_Wwhr8dEqlbW-63" value="" style="rounded=0;whiteSpace=wrap;html=1;" parent="420nJrbG_Wwhr8dEqlbW-62" vertex="1">
          <mxGeometry width="400" height="180" as="geometry" />
        </mxCell>
        <mxCell id="420nJrbG_Wwhr8dEqlbW-64" value="VEC_SIZE (32B)" style="rounded=0;whiteSpace=wrap;html=1;fillColor=#fff2cc;strokeColor=#d6b656;" parent="420nJrbG_Wwhr8dEqlbW-62" vertex="1">
          <mxGeometry x="100" y="65" width="240" height="40" as="geometry" />
        </mxCell>
        <mxCell id="420nJrbG_Wwhr8dEqlbW-65" value="VEC_SIZE (32B)" style="rounded=0;whiteSpace=wrap;html=1;fillColor=#fff2cc;strokeColor=#d6b656;" parent="420nJrbG_Wwhr8dEqlbW-62" vertex="1">
          <mxGeometry x="100" y="125" width="240" height="40" as="geometry" />
        </mxCell>
        <mxCell id="420nJrbG_Wwhr8dEqlbW-66" value="PTR1" style="text;html=1;align=center;verticalAlign=middle;resizable=0;points=[];autosize=1;strokeColor=none;fillColor=none;" parent="420nJrbG_Wwhr8dEqlbW-62" vertex="1">
          <mxGeometry x="35" y="75" width="50" height="30" as="geometry" />
        </mxCell>
        <mxCell id="420nJrbG_Wwhr8dEqlbW-67" value="PTR2" style="text;html=1;align=center;verticalAlign=middle;resizable=0;points=[];autosize=1;strokeColor=none;fillColor=none;" parent="420nJrbG_Wwhr8dEqlbW-62" vertex="1">
          <mxGeometry x="35" y="130" width="50" height="30" as="geometry" />
        </mxCell>
        <mxCell id="420nJrbG_Wwhr8dEqlbW-68" value="compare a VLEN size" style="text;html=1;align=center;verticalAlign=middle;resizable=0;points=[];autosize=1;strokeColor=none;fillColor=none;" parent="420nJrbG_Wwhr8dEqlbW-62" vertex="1">
          <mxGeometry x="125" y="20" width="140" height="30" as="geometry" />
        </mxCell>
        <mxCell id="420nJrbG_Wwhr8dEqlbW-84" value="" style="group" parent="1" vertex="1" connectable="0">
          <mxGeometry x="795" y="2000" width="830" height="210" as="geometry" />
        </mxCell>
        <mxCell id="420nJrbG_Wwhr8dEqlbW-57" value="" style="rounded=0;whiteSpace=wrap;html=1;" parent="420nJrbG_Wwhr8dEqlbW-84" vertex="1">
          <mxGeometry width="830" height="210" as="geometry" />
        </mxCell>
        <mxCell id="420nJrbG_Wwhr8dEqlbW-79" value="compare another&amp;nbsp; 3 * VLEN size" style="text;html=1;align=center;verticalAlign=middle;resizable=0;points=[];autosize=1;strokeColor=none;fillColor=none;" parent="420nJrbG_Wwhr8dEqlbW-84" vertex="1">
          <mxGeometry x="313.03" y="20" width="190" height="30" as="geometry" />
        </mxCell>
        <mxCell id="420nJrbG_Wwhr8dEqlbW-89" value="" style="group" parent="420nJrbG_Wwhr8dEqlbW-84" vertex="1" connectable="0">
          <mxGeometry x="14.279999999999973" y="150" width="787.5000000000002" height="40" as="geometry" />
        </mxCell>
        <mxCell id="420nJrbG_Wwhr8dEqlbW-90" value="VEC_SIZE" style="rounded=0;whiteSpace=wrap;html=1;fillColor=#fff2cc;strokeColor=#d6b656;" parent="420nJrbG_Wwhr8dEqlbW-89" vertex="1">
          <mxGeometry x="65.72000000000003" width="250" height="40" as="geometry" />
        </mxCell>
        <mxCell id="420nJrbG_Wwhr8dEqlbW-91" value="VEC_SIZE" style="rounded=0;whiteSpace=wrap;html=1;fillColor=#ffe6cc;strokeColor=#d79b00;" parent="420nJrbG_Wwhr8dEqlbW-89" vertex="1">
          <mxGeometry x="307.5000000000002" width="240" height="40" as="geometry" />
        </mxCell>
        <mxCell id="420nJrbG_Wwhr8dEqlbW-92" value="VEC_SIZE" style="rounded=0;whiteSpace=wrap;html=1;fillColor=#f8cecc;strokeColor=#b85450;" parent="420nJrbG_Wwhr8dEqlbW-89" vertex="1">
          <mxGeometry x="547.5000000000002" width="240" height="40" as="geometry" />
        </mxCell>
        <mxCell id="420nJrbG_Wwhr8dEqlbW-94" value="PTR2" style="text;html=1;align=center;verticalAlign=middle;resizable=0;points=[];autosize=1;strokeColor=none;fillColor=none;" parent="420nJrbG_Wwhr8dEqlbW-89" vertex="1">
          <mxGeometry y="5" width="50" height="30" as="geometry" />
        </mxCell>
        <mxCell id="420nJrbG_Wwhr8dEqlbW-127" value="" style="group" parent="420nJrbG_Wwhr8dEqlbW-84" vertex="1" connectable="0">
          <mxGeometry x="14.279999999999973" y="85" width="787.5000000000002" height="40" as="geometry" />
        </mxCell>
        <mxCell id="420nJrbG_Wwhr8dEqlbW-46" value="VEC_SIZE" style="rounded=0;whiteSpace=wrap;html=1;fillColor=#fff2cc;strokeColor=#d6b656;" parent="420nJrbG_Wwhr8dEqlbW-127" vertex="1">
          <mxGeometry x="65.72000000000003" width="250" height="40" as="geometry" />
        </mxCell>
        <mxCell id="420nJrbG_Wwhr8dEqlbW-47" value="VEC_SIZE" style="rounded=0;whiteSpace=wrap;html=1;fillColor=#ffe6cc;strokeColor=#d79b00;" parent="420nJrbG_Wwhr8dEqlbW-127" vertex="1">
          <mxGeometry x="307.5000000000002" width="240" height="40" as="geometry" />
        </mxCell>
        <mxCell id="420nJrbG_Wwhr8dEqlbW-48" value="VEC_SIZE" style="rounded=0;whiteSpace=wrap;html=1;fillColor=#f8cecc;strokeColor=#b85450;" parent="420nJrbG_Wwhr8dEqlbW-127" vertex="1">
          <mxGeometry x="547.5000000000002" width="240" height="40" as="geometry" />
        </mxCell>
        <mxCell id="420nJrbG_Wwhr8dEqlbW-55" value="PTR1" style="text;html=1;align=center;verticalAlign=middle;resizable=0;points=[];autosize=1;strokeColor=none;fillColor=none;" parent="420nJrbG_Wwhr8dEqlbW-127" vertex="1">
          <mxGeometry y="10" width="50" height="30" as="geometry" />
        </mxCell>
        <mxCell id="420nJrbG_Wwhr8dEqlbW-131" style="edgeStyle=orthogonalEdgeStyle;rounded=0;orthogonalLoop=1;jettySize=auto;html=1;entryX=0.5;entryY=0;entryDx=0;entryDy=0;" parent="1" source="420nJrbG_Wwhr8dEqlbW-97" target="420nJrbG_Wwhr8dEqlbW-57" edge="1">
          <mxGeometry relative="1" as="geometry" />
        </mxCell>
        <mxCell id="420nJrbG_Wwhr8dEqlbW-97" value="Aliagn to VEC_SIZE" style="whiteSpace=wrap;html=1;" parent="1" vertex="1">
          <mxGeometry x="1095" y="1890" width="230" height="80" as="geometry" />
        </mxCell>
        <mxCell id="420nJrbG_Wwhr8dEqlbW-136" style="edgeStyle=orthogonalEdgeStyle;rounded=0;orthogonalLoop=1;jettySize=auto;html=1;entryX=0.5;entryY=0;entryDx=0;entryDy=0;" parent="1" source="420nJrbG_Wwhr8dEqlbW-98" target="420nJrbG_Wwhr8dEqlbW-100" edge="1">
          <mxGeometry relative="1" as="geometry" />
        </mxCell>
        <mxCell id="420nJrbG_Wwhr8dEqlbW-98" value="Aliagn to 4 * VEC_SIZE" style="whiteSpace=wrap;html=1;" parent="1" vertex="1">
          <mxGeometry x="1095" y="2240" width="230" height="80" as="geometry" />
        </mxCell>
        <mxCell id="420nJrbG_Wwhr8dEqlbW-99" value="" style="group" parent="1" vertex="1" connectable="0">
          <mxGeometry x="655" y="2350" width="1110" height="210" as="geometry" />
        </mxCell>
        <mxCell id="420nJrbG_Wwhr8dEqlbW-100" value="" style="rounded=0;whiteSpace=wrap;html=1;" parent="420nJrbG_Wwhr8dEqlbW-99" vertex="1">
          <mxGeometry width="1110" height="210" as="geometry" />
        </mxCell>
        <mxCell id="420nJrbG_Wwhr8dEqlbW-101" value="compare&amp;nbsp; &amp;nbsp;4 * VLEN size" style="text;html=1;align=center;verticalAlign=middle;resizable=0;points=[];autosize=1;strokeColor=none;fillColor=none;" parent="420nJrbG_Wwhr8dEqlbW-99" vertex="1">
          <mxGeometry x="479.9980722891567" y="20" width="150" height="30" as="geometry" />
        </mxCell>
        <mxCell id="420nJrbG_Wwhr8dEqlbW-119" value="" style="group" parent="420nJrbG_Wwhr8dEqlbW-99" vertex="1" connectable="0">
          <mxGeometry x="30" y="80" width="1025" height="40" as="geometry" />
        </mxCell>
        <mxCell id="420nJrbG_Wwhr8dEqlbW-114" value="VEC_SIZE" style="rounded=0;whiteSpace=wrap;html=1;fillColor=#fff2cc;strokeColor=#d6b656;" parent="420nJrbG_Wwhr8dEqlbW-119" vertex="1">
          <mxGeometry x="65" width="250" height="40" as="geometry" />
        </mxCell>
        <mxCell id="420nJrbG_Wwhr8dEqlbW-115" value="VEC_SIZE" style="rounded=0;whiteSpace=wrap;html=1;fillColor=#ffe6cc;strokeColor=#d79b00;" parent="420nJrbG_Wwhr8dEqlbW-119" vertex="1">
          <mxGeometry x="305" width="240" height="40" as="geometry" />
        </mxCell>
        <mxCell id="420nJrbG_Wwhr8dEqlbW-116" value="VEC_SIZE" style="rounded=0;whiteSpace=wrap;html=1;fillColor=#f8cecc;strokeColor=#b85450;" parent="420nJrbG_Wwhr8dEqlbW-119" vertex="1">
          <mxGeometry x="545" width="240" height="40" as="geometry" />
        </mxCell>
        <mxCell id="420nJrbG_Wwhr8dEqlbW-117" value="VEC_SIZE" style="rounded=0;whiteSpace=wrap;html=1;fillColor=#e1d5e7;strokeColor=#9673a6;" parent="420nJrbG_Wwhr8dEqlbW-119" vertex="1">
          <mxGeometry x="785" width="240" height="40" as="geometry" />
        </mxCell>
        <mxCell id="420nJrbG_Wwhr8dEqlbW-118" value="PTR1" style="text;html=1;align=center;verticalAlign=middle;resizable=0;points=[];autosize=1;strokeColor=none;fillColor=none;" parent="420nJrbG_Wwhr8dEqlbW-119" vertex="1">
          <mxGeometry y="5" width="50" height="30" as="geometry" />
        </mxCell>
        <mxCell id="420nJrbG_Wwhr8dEqlbW-120" value="" style="group" parent="420nJrbG_Wwhr8dEqlbW-99" vertex="1" connectable="0">
          <mxGeometry x="30" y="150" width="1025" height="40" as="geometry" />
        </mxCell>
        <mxCell id="420nJrbG_Wwhr8dEqlbW-121" value="VEC_SIZE" style="rounded=0;whiteSpace=wrap;html=1;fillColor=#fff2cc;strokeColor=#d6b656;" parent="420nJrbG_Wwhr8dEqlbW-120" vertex="1">
          <mxGeometry x="65" width="250" height="40" as="geometry" />
        </mxCell>
        <mxCell id="420nJrbG_Wwhr8dEqlbW-122" value="VEC_SIZE" style="rounded=0;whiteSpace=wrap;html=1;fillColor=#ffe6cc;strokeColor=#d79b00;" parent="420nJrbG_Wwhr8dEqlbW-120" vertex="1">
          <mxGeometry x="305" width="240" height="40" as="geometry" />
        </mxCell>
        <mxCell id="420nJrbG_Wwhr8dEqlbW-123" value="VEC_SIZE" style="rounded=0;whiteSpace=wrap;html=1;fillColor=#f8cecc;strokeColor=#b85450;" parent="420nJrbG_Wwhr8dEqlbW-120" vertex="1">
          <mxGeometry x="545" width="240" height="40" as="geometry" />
        </mxCell>
        <mxCell id="420nJrbG_Wwhr8dEqlbW-124" value="VEC_SIZE" style="rounded=0;whiteSpace=wrap;html=1;fillColor=#e1d5e7;strokeColor=#9673a6;" parent="420nJrbG_Wwhr8dEqlbW-120" vertex="1">
          <mxGeometry x="785" width="240" height="40" as="geometry" />
        </mxCell>
        <mxCell id="420nJrbG_Wwhr8dEqlbW-125" value="PTR2" style="text;html=1;align=center;verticalAlign=middle;resizable=0;points=[];autosize=1;strokeColor=none;fillColor=none;" parent="420nJrbG_Wwhr8dEqlbW-120" vertex="1">
          <mxGeometry x="1" y="5" width="50" height="30" as="geometry" />
        </mxCell>
        <mxCell id="420nJrbG_Wwhr8dEqlbW-129" value="" style="edgeStyle=orthogonalEdgeStyle;rounded=0;orthogonalLoop=1;jettySize=auto;html=1;" parent="1" source="420nJrbG_Wwhr8dEqlbW-63" target="420nJrbG_Wwhr8dEqlbW-97" edge="1">
          <mxGeometry relative="1" as="geometry" />
        </mxCell>
        <mxCell id="420nJrbG_Wwhr8dEqlbW-132" style="edgeStyle=orthogonalEdgeStyle;rounded=0;orthogonalLoop=1;jettySize=auto;html=1;entryX=0.5;entryY=0;entryDx=0;entryDy=0;" parent="1" source="420nJrbG_Wwhr8dEqlbW-57" target="420nJrbG_Wwhr8dEqlbW-98" edge="1">
          <mxGeometry relative="1" as="geometry" />
        </mxCell>
        <mxCell id="420nJrbG_Wwhr8dEqlbW-137" value="" style="edgeStyle=orthogonalEdgeStyle;rounded=0;orthogonalLoop=1;jettySize=auto;html=1;" parent="1" source="420nJrbG_Wwhr8dEqlbW-100" target="420nJrbG_Wwhr8dEqlbW-37" edge="1">
          <mxGeometry relative="1" as="geometry" />
        </mxCell>
        <mxCell id="420nJrbG_Wwhr8dEqlbW-140" value="" style="edgeStyle=orthogonalEdgeStyle;rounded=0;orthogonalLoop=1;jettySize=auto;html=1;" parent="1" source="420nJrbG_Wwhr8dEqlbW-142" target="420nJrbG_Wwhr8dEqlbW-143" edge="1">
          <mxGeometry relative="1" as="geometry" />
        </mxCell>
        <mxCell id="420nJrbG_Wwhr8dEqlbW-141" value="" style="edgeStyle=orthogonalEdgeStyle;rounded=0;orthogonalLoop=1;jettySize=auto;html=1;" parent="1" source="420nJrbG_Wwhr8dEqlbW-142" target="420nJrbG_Wwhr8dEqlbW-145" edge="1">
          <mxGeometry relative="1" as="geometry" />
        </mxCell>
        <mxCell id="420nJrbG_Wwhr8dEqlbW-142" value="*PTR1 != *PTR2&amp;nbsp; ?&lt;div&gt;meet the end ?&lt;/div&gt;" style="rhombus;whiteSpace=wrap;html=1;" parent="1" vertex="1">
          <mxGeometry x="2480" y="2620" width="390" height="110" as="geometry" />
        </mxCell>
        <mxCell id="420nJrbG_Wwhr8dEqlbW-143" value="End" style="rounded=1;whiteSpace=wrap;html=1;" parent="1" vertex="1">
          <mxGeometry x="2615" y="2775" width="120" height="60" as="geometry" />
        </mxCell>
        <mxCell id="420nJrbG_Wwhr8dEqlbW-144" style="edgeStyle=orthogonalEdgeStyle;rounded=0;orthogonalLoop=1;jettySize=auto;html=1;entryX=1;entryY=0.5;entryDx=0;entryDy=0;" parent="1" source="420nJrbG_Wwhr8dEqlbW-145" target="420nJrbG_Wwhr8dEqlbW-175" edge="1">
          <mxGeometry relative="1" as="geometry" />
        </mxCell>
        <mxCell id="420nJrbG_Wwhr8dEqlbW-145" value="PTR1 += 4 * VEC_SIZE&lt;div&gt;PTR1 += 4 * VEC_SIZE&lt;/div&gt;" style="whiteSpace=wrap;html=1;" parent="1" vertex="1">
          <mxGeometry x="3090" y="2405" width="230" height="80" as="geometry" />
        </mxCell>
        <mxCell id="420nJrbG_Wwhr8dEqlbW-146" value="" style="edgeStyle=orthogonalEdgeStyle;rounded=0;orthogonalLoop=1;jettySize=auto;html=1;" parent="1" source="420nJrbG_Wwhr8dEqlbW-147" target="420nJrbG_Wwhr8dEqlbW-149" edge="1">
          <mxGeometry relative="1" as="geometry" />
        </mxCell>
        <mxCell id="420nJrbG_Wwhr8dEqlbW-147" value="Start" style="rounded=1;whiteSpace=wrap;html=1;" parent="1" vertex="1">
          <mxGeometry x="2615" y="1410" width="120" height="60" as="geometry" />
        </mxCell>
        <mxCell id="420nJrbG_Wwhr8dEqlbW-148" style="edgeStyle=orthogonalEdgeStyle;rounded=0;orthogonalLoop=1;jettySize=auto;html=1;entryX=0.5;entryY=0;entryDx=0;entryDy=0;" parent="1" source="420nJrbG_Wwhr8dEqlbW-149" target="420nJrbG_Wwhr8dEqlbW-151" edge="1">
          <mxGeometry relative="1" as="geometry" />
        </mxCell>
        <mxCell id="420nJrbG_Wwhr8dEqlbW-149" value="set vlen" style="whiteSpace=wrap;html=1;" parent="1" vertex="1">
          <mxGeometry x="2560" y="1540" width="230" height="80" as="geometry" />
        </mxCell>
        <mxCell id="420nJrbG_Wwhr8dEqlbW-150" value="" style="group" parent="1" vertex="1" connectable="0">
          <mxGeometry x="2475" y="1670" width="400" height="180" as="geometry" />
        </mxCell>
        <mxCell id="420nJrbG_Wwhr8dEqlbW-151" value="" style="rounded=0;whiteSpace=wrap;html=1;" parent="420nJrbG_Wwhr8dEqlbW-150" vertex="1">
          <mxGeometry width="400" height="180" as="geometry" />
        </mxCell>
        <mxCell id="420nJrbG_Wwhr8dEqlbW-152" value="VEC_SIZE (32B)" style="rounded=0;whiteSpace=wrap;html=1;fillColor=#fff2cc;strokeColor=#d6b656;" parent="420nJrbG_Wwhr8dEqlbW-150" vertex="1">
          <mxGeometry x="100" y="65" width="240" height="40" as="geometry" />
        </mxCell>
        <mxCell id="420nJrbG_Wwhr8dEqlbW-153" value="VEC_SIZE (32B)" style="rounded=0;whiteSpace=wrap;html=1;fillColor=#fff2cc;strokeColor=#d6b656;" parent="420nJrbG_Wwhr8dEqlbW-150" vertex="1">
          <mxGeometry x="100" y="125" width="240" height="40" as="geometry" />
        </mxCell>
        <mxCell id="420nJrbG_Wwhr8dEqlbW-154" value="PTR1" style="text;html=1;align=center;verticalAlign=middle;resizable=0;points=[];autosize=1;strokeColor=none;fillColor=none;" parent="420nJrbG_Wwhr8dEqlbW-150" vertex="1">
          <mxGeometry x="35" y="75" width="50" height="30" as="geometry" />
        </mxCell>
        <mxCell id="420nJrbG_Wwhr8dEqlbW-155" value="PTR2" style="text;html=1;align=center;verticalAlign=middle;resizable=0;points=[];autosize=1;strokeColor=none;fillColor=none;" parent="420nJrbG_Wwhr8dEqlbW-150" vertex="1">
          <mxGeometry x="35" y="130" width="50" height="30" as="geometry" />
        </mxCell>
        <mxCell id="420nJrbG_Wwhr8dEqlbW-156" value="compare a VLEN size" style="text;html=1;align=center;verticalAlign=middle;resizable=0;points=[];autosize=1;strokeColor=none;fillColor=none;" parent="420nJrbG_Wwhr8dEqlbW-150" vertex="1">
          <mxGeometry x="125" y="20" width="140" height="30" as="geometry" />
        </mxCell>
        <mxCell id="420nJrbG_Wwhr8dEqlbW-157" value="" style="group" parent="1" vertex="1" connectable="0">
          <mxGeometry x="2260" y="1990" width="830" height="210" as="geometry" />
        </mxCell>
        <mxCell id="420nJrbG_Wwhr8dEqlbW-158" value="" style="rounded=0;whiteSpace=wrap;html=1;" parent="420nJrbG_Wwhr8dEqlbW-157" vertex="1">
          <mxGeometry width="830" height="210" as="geometry" />
        </mxCell>
        <mxCell id="420nJrbG_Wwhr8dEqlbW-159" value="compare another&amp;nbsp; 3 * VLEN size" style="text;html=1;align=center;verticalAlign=middle;resizable=0;points=[];autosize=1;strokeColor=none;fillColor=none;" parent="420nJrbG_Wwhr8dEqlbW-157" vertex="1">
          <mxGeometry x="320" y="20" width="190" height="30" as="geometry" />
        </mxCell>
        <mxCell id="420nJrbG_Wwhr8dEqlbW-160" value="" style="group" parent="420nJrbG_Wwhr8dEqlbW-157" vertex="1" connectable="0">
          <mxGeometry x="14.279999999999973" y="150" width="787.5000000000002" height="40" as="geometry" />
        </mxCell>
        <mxCell id="420nJrbG_Wwhr8dEqlbW-161" value="VEC_SIZE" style="rounded=0;whiteSpace=wrap;html=1;fillColor=#fff2cc;strokeColor=#d6b656;" parent="420nJrbG_Wwhr8dEqlbW-160" vertex="1">
          <mxGeometry x="65.72000000000003" width="250" height="40" as="geometry" />
        </mxCell>
        <mxCell id="420nJrbG_Wwhr8dEqlbW-162" value="VEC_SIZE" style="rounded=0;whiteSpace=wrap;html=1;fillColor=#ffe6cc;strokeColor=#d79b00;" parent="420nJrbG_Wwhr8dEqlbW-160" vertex="1">
          <mxGeometry x="307.5000000000002" width="240" height="40" as="geometry" />
        </mxCell>
        <mxCell id="420nJrbG_Wwhr8dEqlbW-163" value="VEC_SIZE" style="rounded=0;whiteSpace=wrap;html=1;fillColor=#f8cecc;strokeColor=#b85450;" parent="420nJrbG_Wwhr8dEqlbW-160" vertex="1">
          <mxGeometry x="547.5000000000002" width="240" height="40" as="geometry" />
        </mxCell>
        <mxCell id="420nJrbG_Wwhr8dEqlbW-164" value="PTR2" style="text;html=1;align=center;verticalAlign=middle;resizable=0;points=[];autosize=1;strokeColor=none;fillColor=none;" parent="420nJrbG_Wwhr8dEqlbW-160" vertex="1">
          <mxGeometry y="5" width="50" height="30" as="geometry" />
        </mxCell>
        <mxCell id="420nJrbG_Wwhr8dEqlbW-165" value="" style="group" parent="420nJrbG_Wwhr8dEqlbW-157" vertex="1" connectable="0">
          <mxGeometry x="14.279999999999973" y="85" width="787.5000000000002" height="40" as="geometry" />
        </mxCell>
        <mxCell id="420nJrbG_Wwhr8dEqlbW-166" value="VEC_SIZE" style="rounded=0;whiteSpace=wrap;html=1;fillColor=#fff2cc;strokeColor=#d6b656;" parent="420nJrbG_Wwhr8dEqlbW-165" vertex="1">
          <mxGeometry x="65.72000000000003" width="250" height="40" as="geometry" />
        </mxCell>
        <mxCell id="420nJrbG_Wwhr8dEqlbW-167" value="VEC_SIZE" style="rounded=0;whiteSpace=wrap;html=1;fillColor=#ffe6cc;strokeColor=#d79b00;" parent="420nJrbG_Wwhr8dEqlbW-165" vertex="1">
          <mxGeometry x="307.5000000000002" width="240" height="40" as="geometry" />
        </mxCell>
        <mxCell id="420nJrbG_Wwhr8dEqlbW-168" value="VEC_SIZE" style="rounded=0;whiteSpace=wrap;html=1;fillColor=#f8cecc;strokeColor=#b85450;" parent="420nJrbG_Wwhr8dEqlbW-165" vertex="1">
          <mxGeometry x="547.5000000000002" width="240" height="40" as="geometry" />
        </mxCell>
        <mxCell id="420nJrbG_Wwhr8dEqlbW-169" value="PTR1" style="text;html=1;align=center;verticalAlign=middle;resizable=0;points=[];autosize=1;strokeColor=none;fillColor=none;" parent="420nJrbG_Wwhr8dEqlbW-165" vertex="1">
          <mxGeometry y="10" width="50" height="30" as="geometry" />
        </mxCell>
        <mxCell id="420nJrbG_Wwhr8dEqlbW-170" style="edgeStyle=orthogonalEdgeStyle;rounded=0;orthogonalLoop=1;jettySize=auto;html=1;entryX=0.5;entryY=0;entryDx=0;entryDy=0;" parent="1" source="420nJrbG_Wwhr8dEqlbW-171" target="420nJrbG_Wwhr8dEqlbW-158" edge="1">
          <mxGeometry relative="1" as="geometry" />
        </mxCell>
        <mxCell id="420nJrbG_Wwhr8dEqlbW-171" value="Aliagn to VEC_SIZE" style="whiteSpace=wrap;html=1;" parent="1" vertex="1">
          <mxGeometry x="2560" y="1880" width="230" height="80" as="geometry" />
        </mxCell>
        <mxCell id="420nJrbG_Wwhr8dEqlbW-172" style="edgeStyle=orthogonalEdgeStyle;rounded=0;orthogonalLoop=1;jettySize=auto;html=1;entryX=0.5;entryY=0;entryDx=0;entryDy=0;" parent="1" source="420nJrbG_Wwhr8dEqlbW-173" target="420nJrbG_Wwhr8dEqlbW-175" edge="1">
          <mxGeometry relative="1" as="geometry" />
        </mxCell>
        <mxCell id="420nJrbG_Wwhr8dEqlbW-173" value="Aliagn to 4 * VEC_SIZE&lt;div&gt;LMUL = 4 * LMUL&lt;/div&gt;" style="whiteSpace=wrap;html=1;" parent="1" vertex="1">
          <mxGeometry x="2560" y="2230" width="230" height="80" as="geometry" />
        </mxCell>
        <mxCell id="420nJrbG_Wwhr8dEqlbW-174" value="" style="group" parent="1" vertex="1" connectable="0">
          <mxGeometry x="2425" y="2340" width="500" height="210" as="geometry" />
        </mxCell>
        <mxCell id="420nJrbG_Wwhr8dEqlbW-175" value="" style="rounded=0;whiteSpace=wrap;html=1;" parent="420nJrbG_Wwhr8dEqlbW-174" vertex="1">
          <mxGeometry width="500" height="210" as="geometry" />
        </mxCell>
        <mxCell id="420nJrbG_Wwhr8dEqlbW-176" value="compare&amp;nbsp; &amp;nbsp;LMUL * VLEN size" style="text;html=1;align=center;verticalAlign=middle;resizable=0;points=[];autosize=1;strokeColor=none;fillColor=none;" parent="420nJrbG_Wwhr8dEqlbW-174" vertex="1">
          <mxGeometry x="209.4585911212417" y="20" width="180" height="30" as="geometry" />
        </mxCell>
        <mxCell id="420nJrbG_Wwhr8dEqlbW-177" value="" style="group" parent="420nJrbG_Wwhr8dEqlbW-174" vertex="1" connectable="0">
          <mxGeometry x="13.50943396226415" y="80" width="458.1886792452831" height="40" as="geometry" />
        </mxCell>
        <mxCell id="420nJrbG_Wwhr8dEqlbW-178" value="LMUL * VEC_SIZE" style="rounded=0;whiteSpace=wrap;html=1;fillColor=#dae8fc;strokeColor=#6c8ebf;" parent="420nJrbG_Wwhr8dEqlbW-177" vertex="1">
          <mxGeometry x="108.16993145937622" width="350.01874778590684" height="40" as="geometry" />
        </mxCell>
        <mxCell id="420nJrbG_Wwhr8dEqlbW-182" value="PTR1" style="text;html=1;align=center;verticalAlign=middle;resizable=0;points=[];autosize=1;strokeColor=none;fillColor=none;" parent="420nJrbG_Wwhr8dEqlbW-177" vertex="1">
          <mxGeometry x="42.714134815534074" y="5" width="50" height="30" as="geometry" />
        </mxCell>
        <mxCell id="420nJrbG_Wwhr8dEqlbW-183" value="" style="group" parent="420nJrbG_Wwhr8dEqlbW-174" vertex="1" connectable="0">
          <mxGeometry x="56.60757968797344" y="150" width="461.71171171171164" height="40" as="geometry" />
        </mxCell>
        <mxCell id="420nJrbG_Wwhr8dEqlbW-188" value="PTR2" style="text;html=1;align=center;verticalAlign=middle;resizable=0;points=[];autosize=1;strokeColor=none;fillColor=none;" parent="420nJrbG_Wwhr8dEqlbW-183" vertex="1">
          <mxGeometry x="0.4504504504504503" y="5" width="50" height="30" as="geometry" />
        </mxCell>
        <mxCell id="420nJrbG_Wwhr8dEqlbW-184" value="LMUL * VEC_SIZE" style="rounded=0;whiteSpace=wrap;html=1;fillColor=#f5f5f5;strokeColor=#666666;" parent="420nJrbG_Wwhr8dEqlbW-174" vertex="1">
          <mxGeometry x="122.64531553703021" y="150" width="349.0566037735849" height="40" as="geometry" />
        </mxCell>
        <mxCell id="420nJrbG_Wwhr8dEqlbW-189" value="" style="edgeStyle=orthogonalEdgeStyle;rounded=0;orthogonalLoop=1;jettySize=auto;html=1;" parent="1" source="420nJrbG_Wwhr8dEqlbW-151" target="420nJrbG_Wwhr8dEqlbW-171" edge="1">
          <mxGeometry relative="1" as="geometry" />
        </mxCell>
        <mxCell id="420nJrbG_Wwhr8dEqlbW-190" style="edgeStyle=orthogonalEdgeStyle;rounded=0;orthogonalLoop=1;jettySize=auto;html=1;entryX=0.5;entryY=0;entryDx=0;entryDy=0;" parent="1" source="420nJrbG_Wwhr8dEqlbW-158" target="420nJrbG_Wwhr8dEqlbW-173" edge="1">
          <mxGeometry relative="1" as="geometry" />
        </mxCell>
        <mxCell id="420nJrbG_Wwhr8dEqlbW-191" value="" style="edgeStyle=orthogonalEdgeStyle;rounded=0;orthogonalLoop=1;jettySize=auto;html=1;" parent="1" source="420nJrbG_Wwhr8dEqlbW-175" target="420nJrbG_Wwhr8dEqlbW-142" edge="1">
          <mxGeometry relative="1" as="geometry" />
        </mxCell>
        <mxCell id="2WTKgB3i8UW73JAoIlTa-2" value="arena" style="rounded=0;whiteSpace=wrap;html=1;" parent="1" vertex="1">
          <mxGeometry x="-4640" y="-3240" width="80" height="120" as="geometry" />
        </mxCell>
        <mxCell id="2WTKgB3i8UW73JAoIlTa-3" value="top chunk" style="rounded=0;whiteSpace=wrap;html=1;" parent="1" vertex="1">
          <mxGeometry x="-4640" y="-3240" width="80" height="20" as="geometry" />
        </mxCell>
        <mxCell id="-ABMfCkV0aKxUMDqAIKD-1" value="a0" style="rounded=0;whiteSpace=wrap;html=1;strokeColor=default;" vertex="1" parent="1">
          <mxGeometry x="-4480" y="-3080" width="40" height="20" as="geometry" />
        </mxCell>
        <mxCell id="-ABMfCkV0aKxUMDqAIKD-2" value="r0" style="rounded=0;whiteSpace=wrap;html=1;fillColor=#f8cecc;strokeColor=default;" vertex="1" parent="1">
          <mxGeometry x="-4440" y="-3080" width="40" height="20" as="geometry" />
        </mxCell>
        <mxCell id="-ABMfCkV0aKxUMDqAIKD-3" value="g0" style="rounded=0;whiteSpace=wrap;html=1;fillColor=#d5e8d4;strokeColor=default;" vertex="1" parent="1">
          <mxGeometry x="-4400" y="-3080" width="40" height="20" as="geometry" />
        </mxCell>
        <mxCell id="-ABMfCkV0aKxUMDqAIKD-34" style="edgeStyle=orthogonalEdgeStyle;rounded=0;orthogonalLoop=1;jettySize=auto;html=1;entryX=0;entryY=0.25;entryDx=0;entryDy=0;curved=1;exitX=0;exitY=0.5;exitDx=0;exitDy=0;" edge="1" parent="1" source="-ABMfCkV0aKxUMDqAIKD-4" target="-ABMfCkV0aKxUMDqAIKD-12">
          <mxGeometry relative="1" as="geometry">
            <Array as="points">
              <mxPoint x="-4310" y="-3070" />
              <mxPoint x="-4310" y="-3025" />
            </Array>
          </mxGeometry>
        </mxCell>
        <mxCell id="-ABMfCkV0aKxUMDqAIKD-35" style="edgeStyle=orthogonalEdgeStyle;rounded=0;orthogonalLoop=1;jettySize=auto;html=1;entryX=1;entryY=0.5;entryDx=0;entryDy=0;curved=1;exitX=0;exitY=0.5;exitDx=0;exitDy=0;" edge="1" parent="1" source="-ABMfCkV0aKxUMDqAIKD-4" target="-ABMfCkV0aKxUMDqAIKD-30">
          <mxGeometry relative="1" as="geometry" />
        </mxCell>
        <mxCell id="-ABMfCkV0aKxUMDqAIKD-4" value="b0" style="rounded=0;whiteSpace=wrap;html=1;direction=west;fillColor=#dae8fc;strokeColor=default;" vertex="1" parent="1">
          <mxGeometry x="-4360" y="-3080" width="40" height="20" as="geometry" />
        </mxCell>
        <mxCell id="-ABMfCkV0aKxUMDqAIKD-9" value="" style="rounded=0;whiteSpace=wrap;html=1;strokeColor=default;" vertex="1" parent="1">
          <mxGeometry x="-4560" y="-3040" width="40" height="20" as="geometry" />
        </mxCell>
        <mxCell id="-ABMfCkV0aKxUMDqAIKD-10" value="r0" style="rounded=0;whiteSpace=wrap;html=1;fillColor=#f8cecc;strokeColor=default;" vertex="1" parent="1">
          <mxGeometry x="-4520" y="-3040" width="40" height="20" as="geometry" />
        </mxCell>
        <mxCell id="-ABMfCkV0aKxUMDqAIKD-11" value="" style="rounded=0;whiteSpace=wrap;html=1;" vertex="1" parent="1">
          <mxGeometry x="-4480" y="-3040" width="40" height="20" as="geometry" />
        </mxCell>
        <mxCell id="-ABMfCkV0aKxUMDqAIKD-12" value="b0" style="rounded=0;whiteSpace=wrap;html=1;direction=west;fillColor=#dae8fc;strokeColor=default;" vertex="1" parent="1">
          <mxGeometry x="-4440" y="-3040" width="40" height="20" as="geometry" />
        </mxCell>
        <mxCell id="-ABMfCkV0aKxUMDqAIKD-13" value="&lt;font style=&quot;font-size: 8px;&quot;&gt;alpha&lt;/font&gt;" style="rounded=0;whiteSpace=wrap;html=1;strokeColor=default;" vertex="1" parent="1">
          <mxGeometry x="-4280" y="-3040" width="40" height="20" as="geometry" />
        </mxCell>
        <mxCell id="-ABMfCkV0aKxUMDqAIKD-28" value="a0" style="rounded=0;whiteSpace=wrap;html=1;strokeColor=default;" vertex="1" parent="1">
          <mxGeometry x="-4520" y="-3000" width="40" height="20" as="geometry" />
        </mxCell>
        <mxCell id="-ABMfCkV0aKxUMDqAIKD-29" value="" style="rounded=0;whiteSpace=wrap;html=1;" vertex="1" parent="1">
          <mxGeometry x="-4480" y="-3000" width="40" height="20" as="geometry" />
        </mxCell>
        <mxCell id="-ABMfCkV0aKxUMDqAIKD-30" value="g0" style="rounded=0;whiteSpace=wrap;html=1;fillColor=#d5e8d4;strokeColor=default;" vertex="1" parent="1">
          <mxGeometry x="-4440" y="-3000" width="40" height="20" as="geometry" />
        </mxCell>
        <mxCell id="-ABMfCkV0aKxUMDqAIKD-31" value="" style="rounded=0;whiteSpace=wrap;html=1;strokeColor=default;" vertex="1" parent="1">
          <mxGeometry x="-4560" y="-3000" width="40" height="20" as="geometry" />
        </mxCell>
        <mxCell id="-ABMfCkV0aKxUMDqAIKD-32" value="R B" style="text;html=1;align=center;verticalAlign=middle;resizable=0;points=[];autosize=1;strokeColor=none;fillColor=none;" vertex="1" parent="1">
          <mxGeometry x="-4610" y="-3045" width="40" height="30" as="geometry" />
        </mxCell>
        <mxCell id="-ABMfCkV0aKxUMDqAIKD-33" value="A G" style="text;html=1;align=center;verticalAlign=middle;resizable=0;points=[];autosize=1;strokeColor=none;fillColor=none;" vertex="1" parent="1">
          <mxGeometry x="-4610" y="-3005" width="40" height="30" as="geometry" />
        </mxCell>
        <mxCell id="-ABMfCkV0aKxUMDqAIKD-36" value="&lt;font style=&quot;font-size: 8px;&quot;&gt;mask&lt;/font&gt;" style="text;html=1;align=center;verticalAlign=middle;resizable=0;points=[];autosize=1;strokeColor=none;fillColor=none;" vertex="1" parent="1">
          <mxGeometry x="-4370" y="-3052" width="40" height="30" as="geometry" />
        </mxCell>
        <mxCell id="-ABMfCkV0aKxUMDqAIKD-37" value="&lt;font style=&quot;font-size: 8px;&quot;&gt;&amp;gt;&amp;gt; 8 &amp;amp; mask&lt;/font&gt;" style="text;html=1;align=center;verticalAlign=middle;resizable=0;points=[];autosize=1;strokeColor=none;fillColor=none;" vertex="1" parent="1">
          <mxGeometry x="-4385" y="-3020" width="70" height="30" as="geometry" />
        </mxCell>
        <mxCell id="-ABMfCkV0aKxUMDqAIKD-38" value="*" style="text;html=1;align=center;verticalAlign=middle;resizable=0;points=[];autosize=1;strokeColor=none;fillColor=none;" vertex="1" parent="1">
          <mxGeometry x="-4310" y="-3040" width="30" height="30" as="geometry" />
        </mxCell>
        <mxCell id="-ABMfCkV0aKxUMDqAIKD-41" value="&lt;font style=&quot;font-size: 8px;&quot;&gt;&amp;gt;&amp;gt; 8&lt;/font&gt;" style="text;html=1;align=center;verticalAlign=middle;resizable=0;points=[];autosize=1;strokeColor=none;fillColor=none;" vertex="1" parent="1">
          <mxGeometry x="-4240" y="-3045" width="40" height="30" as="geometry" />
        </mxCell>
        <mxCell id="-ABMfCkV0aKxUMDqAIKD-42" value="&lt;font style=&quot;font-size: 8px;&quot;&gt;alpha&lt;/font&gt;" style="rounded=0;whiteSpace=wrap;html=1;strokeColor=default;" vertex="1" parent="1">
          <mxGeometry x="-4280" y="-3002.5" width="40" height="20" as="geometry" />
        </mxCell>
        <mxCell id="-ABMfCkV0aKxUMDqAIKD-43" value="*" style="text;html=1;align=center;verticalAlign=middle;resizable=0;points=[];autosize=1;strokeColor=none;fillColor=none;" vertex="1" parent="1">
          <mxGeometry x="-4310" y="-3002.5" width="30" height="30" as="geometry" />
        </mxCell>
        <mxCell id="-ABMfCkV0aKxUMDqAIKD-45" value="a0" style="rounded=0;whiteSpace=wrap;html=1;strokeColor=default;" vertex="1" parent="1">
          <mxGeometry x="-4160" y="-3000" width="40" height="20" as="geometry" />
        </mxCell>
        <mxCell id="-ABMfCkV0aKxUMDqAIKD-62" style="edgeStyle=orthogonalEdgeStyle;rounded=0;orthogonalLoop=1;jettySize=auto;html=1;entryX=0;entryY=0.5;entryDx=0;entryDy=0;curved=1;exitX=1;exitY=0.5;exitDx=0;exitDy=0;" edge="1" parent="1" source="-ABMfCkV0aKxUMDqAIKD-47" target="-ABMfCkV0aKxUMDqAIKD-60">
          <mxGeometry relative="1" as="geometry">
            <Array as="points">
              <mxPoint x="-4040" y="-2910" />
            </Array>
          </mxGeometry>
        </mxCell>
        <mxCell id="-ABMfCkV0aKxUMDqAIKD-47" value="g0" style="rounded=0;whiteSpace=wrap;html=1;fillColor=#d5e8d4;strokeColor=default;" vertex="1" parent="1">
          <mxGeometry x="-4080" y="-3000" width="40" height="20" as="geometry" />
        </mxCell>
        <mxCell id="-ABMfCkV0aKxUMDqAIKD-48" value="a1" style="rounded=0;whiteSpace=wrap;html=1;strokeColor=default;" vertex="1" parent="1">
          <mxGeometry x="-4200" y="-3000" width="40" height="20" as="geometry" />
        </mxCell>
        <mxCell id="-ABMfCkV0aKxUMDqAIKD-49" value="g1" style="rounded=0;whiteSpace=wrap;html=1;fillColor=#d5e8d4;strokeColor=default;" vertex="1" parent="1">
          <mxGeometry x="-4120" y="-3000" width="40" height="20" as="geometry" />
        </mxCell>
        <mxCell id="-ABMfCkV0aKxUMDqAIKD-52" value="" style="rounded=0;whiteSpace=wrap;html=1;strokeColor=default;" vertex="1" parent="1">
          <mxGeometry x="-4200" y="-3040" width="40" height="20" as="geometry" />
        </mxCell>
        <mxCell id="-ABMfCkV0aKxUMDqAIKD-53" value="r1" style="rounded=0;whiteSpace=wrap;html=1;fillColor=#f8cecc;strokeColor=default;" vertex="1" parent="1">
          <mxGeometry x="-4160" y="-3040" width="40" height="20" as="geometry" />
        </mxCell>
        <mxCell id="-ABMfCkV0aKxUMDqAIKD-61" style="edgeStyle=orthogonalEdgeStyle;rounded=0;orthogonalLoop=1;jettySize=auto;html=1;entryX=0;entryY=0.5;entryDx=0;entryDy=0;curved=1;exitX=0;exitY=0.5;exitDx=0;exitDy=0;" edge="1" parent="1" source="-ABMfCkV0aKxUMDqAIKD-55" target="-ABMfCkV0aKxUMDqAIKD-60">
          <mxGeometry relative="1" as="geometry" />
        </mxCell>
        <mxCell id="-ABMfCkV0aKxUMDqAIKD-55" value="b1" style="rounded=0;whiteSpace=wrap;html=1;direction=west;fillColor=#dae8fc;strokeColor=default;" vertex="1" parent="1">
          <mxGeometry x="-4080" y="-3040" width="40" height="20" as="geometry" />
        </mxCell>
        <mxCell id="-ABMfCkV0aKxUMDqAIKD-56" value="r0" style="rounded=0;whiteSpace=wrap;html=1;fillColor=#f8cecc;strokeColor=default;" vertex="1" parent="1">
          <mxGeometry x="-4120" y="-3040" width="40" height="20" as="geometry" />
        </mxCell>
        <mxCell id="-ABMfCkV0aKxUMDqAIKD-57" value="a1" style="rounded=0;whiteSpace=wrap;html=1;strokeColor=default;" vertex="1" parent="1">
          <mxGeometry x="-4480" y="-2920" width="40" height="20" as="geometry" />
        </mxCell>
        <mxCell id="-ABMfCkV0aKxUMDqAIKD-58" value="r1" style="rounded=0;whiteSpace=wrap;html=1;fillColor=#f8cecc;strokeColor=default;" vertex="1" parent="1">
          <mxGeometry x="-4440" y="-2920" width="40" height="20" as="geometry" />
        </mxCell>
        <mxCell id="-ABMfCkV0aKxUMDqAIKD-59" value="g1" style="rounded=0;whiteSpace=wrap;html=1;fillColor=#d5e8d4;strokeColor=default;" vertex="1" parent="1">
          <mxGeometry x="-4400" y="-2920" width="40" height="20" as="geometry" />
        </mxCell>
        <mxCell id="-ABMfCkV0aKxUMDqAIKD-60" value="b1" style="rounded=0;whiteSpace=wrap;html=1;direction=west;fillColor=#dae8fc;strokeColor=default;" vertex="1" parent="1">
          <mxGeometry x="-4360" y="-2920" width="40" height="20" as="geometry" />
        </mxCell>
        <mxCell id="-ABMfCkV0aKxUMDqAIKD-66" value="a0" style="rounded=0;whiteSpace=wrap;html=1;strokeColor=default;" vertex="1" parent="1">
          <mxGeometry x="-4560" y="-2720" width="40" height="20" as="geometry" />
        </mxCell>
        <mxCell id="-ABMfCkV0aKxUMDqAIKD-67" value="r0" style="rounded=0;whiteSpace=wrap;html=1;fillColor=#f8cecc;strokeColor=default;" vertex="1" parent="1">
          <mxGeometry x="-4520" y="-2720" width="40" height="20" as="geometry" />
        </mxCell>
        <mxCell id="-ABMfCkV0aKxUMDqAIKD-68" value="g0" style="rounded=0;whiteSpace=wrap;html=1;fillColor=#d5e8d4;strokeColor=default;" vertex="1" parent="1">
          <mxGeometry x="-4480" y="-2720" width="40" height="20" as="geometry" />
        </mxCell>
        <mxCell id="-ABMfCkV0aKxUMDqAIKD-69" value="b0" style="rounded=0;whiteSpace=wrap;html=1;direction=west;fillColor=#dae8fc;strokeColor=default;" vertex="1" parent="1">
          <mxGeometry x="-4440" y="-2720" width="40" height="20" as="geometry" />
        </mxCell>
        <mxCell id="-ABMfCkV0aKxUMDqAIKD-70" value="a0" style="rounded=0;whiteSpace=wrap;html=1;strokeColor=default;" vertex="1" parent="1">
          <mxGeometry x="-4360" y="-2775" width="40" height="20" as="geometry" />
        </mxCell>
        <mxCell id="-ABMfCkV0aKxUMDqAIKD-71" value="*&amp;nbsp; &amp;nbsp;0x0101001" style="text;html=1;align=center;verticalAlign=middle;resizable=0;points=[];autosize=1;strokeColor=none;fillColor=none;" vertex="1" parent="1">
          <mxGeometry x="-4310" y="-2780" width="100" height="30" as="geometry" />
        </mxCell>
        <mxCell id="-ABMfCkV0aKxUMDqAIKD-72" value="a0" style="rounded=0;whiteSpace=wrap;html=1;strokeColor=default;" vertex="1" parent="1">
          <mxGeometry x="-4360" y="-2720" width="40" height="20" as="geometry" />
        </mxCell>
        <mxCell id="-ABMfCkV0aKxUMDqAIKD-73" value="a0" style="rounded=0;whiteSpace=wrap;html=1;strokeColor=default;" vertex="1" parent="1">
          <mxGeometry x="-4320" y="-2720" width="40" height="20" as="geometry" />
        </mxCell>
        <mxCell id="-ABMfCkV0aKxUMDqAIKD-74" value="a0" style="rounded=0;whiteSpace=wrap;html=1;strokeColor=default;" vertex="1" parent="1">
          <mxGeometry x="-4280" y="-2720" width="40" height="20" as="geometry" />
        </mxCell>
        <mxCell id="-ABMfCkV0aKxUMDqAIKD-75" value="a0" style="rounded=0;whiteSpace=wrap;html=1;strokeColor=default;" vertex="1" parent="1">
          <mxGeometry x="-4240" y="-2720" width="40" height="20" as="geometry" />
        </mxCell>
        <mxCell id="-ABMfCkV0aKxUMDqAIKD-76" value="*" style="text;html=1;align=center;verticalAlign=middle;resizable=0;points=[];autosize=1;strokeColor=none;fillColor=none;" vertex="1" parent="1">
          <mxGeometry x="-4395" y="-2720" width="30" height="30" as="geometry" />
        </mxCell>
        <mxCell id="-ABMfCkV0aKxUMDqAIKD-77" value="a1" style="rounded=0;whiteSpace=wrap;html=1;strokeColor=default;" vertex="1" parent="1">
          <mxGeometry x="-4440" y="-2650" width="40" height="20" as="geometry" />
        </mxCell>
        <mxCell id="-ABMfCkV0aKxUMDqAIKD-78" value="r1" style="rounded=0;whiteSpace=wrap;html=1;fillColor=#f8cecc;strokeColor=default;" vertex="1" parent="1">
          <mxGeometry x="-4360" y="-2650" width="40" height="20" as="geometry" />
        </mxCell>
        <mxCell id="-ABMfCkV0aKxUMDqAIKD-79" value="g1" style="rounded=0;whiteSpace=wrap;html=1;fillColor=#d5e8d4;strokeColor=default;" vertex="1" parent="1">
          <mxGeometry x="-4440" y="-2600" width="40" height="20" as="geometry" />
        </mxCell>
        <mxCell id="-ABMfCkV0aKxUMDqAIKD-80" value="b1" style="rounded=0;whiteSpace=wrap;html=1;direction=west;fillColor=#dae8fc;strokeColor=default;" vertex="1" parent="1">
          <mxGeometry x="-4360" y="-2600" width="40" height="20" as="geometry" />
        </mxCell>
        <mxCell id="-ABMfCkV0aKxUMDqAIKD-82" value="a0" style="rounded=0;whiteSpace=wrap;html=1;strokeColor=default;" vertex="1" parent="1">
          <mxGeometry x="-4400" y="-2650" width="40" height="20" as="geometry" />
        </mxCell>
        <mxCell id="-ABMfCkV0aKxUMDqAIKD-83" value="r0" style="rounded=0;whiteSpace=wrap;html=1;fillColor=#f8cecc;strokeColor=default;" vertex="1" parent="1">
          <mxGeometry x="-4320" y="-2650" width="40" height="20" as="geometry" />
        </mxCell>
        <mxCell id="-ABMfCkV0aKxUMDqAIKD-88" value="g0" style="rounded=0;whiteSpace=wrap;html=1;fillColor=#d5e8d4;strokeColor=default;" vertex="1" parent="1">
          <mxGeometry x="-4400" y="-2600" width="40" height="20" as="geometry" />
        </mxCell>
        <mxCell id="-ABMfCkV0aKxUMDqAIKD-89" value="b0" style="rounded=0;whiteSpace=wrap;html=1;direction=west;fillColor=#dae8fc;strokeColor=default;" vertex="1" parent="1">
          <mxGeometry x="-4320" y="-2600" width="40" height="20" as="geometry" />
        </mxCell>
        <mxCell id="-ABMfCkV0aKxUMDqAIKD-90" value="(rb &amp;amp; mask) | (ag &amp;amp; ~mask)" style="text;html=1;align=center;verticalAlign=middle;resizable=0;points=[];autosize=1;strokeColor=none;fillColor=none;" vertex="1" parent="1">
          <mxGeometry x="-4270" y="-2950" width="170" height="30" as="geometry" />
        </mxCell>
        <mxCell id="-ABMfCkV0aKxUMDqAIKD-91" value="a1" style="rounded=0;whiteSpace=wrap;html=1;strokeColor=default;" vertex="1" parent="1">
          <mxGeometry x="-4560" y="-2520" width="40" height="20" as="geometry" />
        </mxCell>
        <mxCell id="-ABMfCkV0aKxUMDqAIKD-92" value="r1" style="rounded=0;whiteSpace=wrap;html=1;fillColor=#f8cecc;strokeColor=default;" vertex="1" parent="1">
          <mxGeometry x="-4480" y="-2520" width="40" height="20" as="geometry" />
        </mxCell>
        <mxCell id="-ABMfCkV0aKxUMDqAIKD-93" value="" style="rounded=0;whiteSpace=wrap;html=1;strokeColor=default;" vertex="1" parent="1">
          <mxGeometry x="-4520" y="-2520" width="40" height="20" as="geometry" />
        </mxCell>
        <mxCell id="-ABMfCkV0aKxUMDqAIKD-94" value="" style="rounded=0;whiteSpace=wrap;html=1;" vertex="1" parent="1">
          <mxGeometry x="-4440" y="-2520" width="40" height="20" as="geometry" />
        </mxCell>
        <mxCell id="-ABMfCkV0aKxUMDqAIKD-95" value="r1" style="rounded=0;whiteSpace=wrap;html=1;fillColor=#f8cecc;strokeColor=default;" vertex="1" parent="1">
          <mxGeometry x="-4520" y="-2480" width="40" height="20" as="geometry" />
        </mxCell>
        <mxCell id="-ABMfCkV0aKxUMDqAIKD-96" value="" style="rounded=0;whiteSpace=wrap;html=1;strokeColor=default;" vertex="1" parent="1">
          <mxGeometry x="-4560" y="-2480" width="40" height="20" as="geometry" />
        </mxCell>
        <mxCell id="-ABMfCkV0aKxUMDqAIKD-97" value="" style="rounded=0;whiteSpace=wrap;html=1;" vertex="1" parent="1">
          <mxGeometry x="-4480" y="-2480" width="40" height="20" as="geometry" />
        </mxCell>
        <mxCell id="-ABMfCkV0aKxUMDqAIKD-98" value="" style="rounded=0;whiteSpace=wrap;html=1;" vertex="1" parent="1">
          <mxGeometry x="-4440" y="-2480" width="40" height="20" as="geometry" />
        </mxCell>
        <mxCell id="-ABMfCkV0aKxUMDqAIKD-99" value="g1" style="rounded=0;whiteSpace=wrap;html=1;fillColor=#d5e8d4;strokeColor=default;" vertex="1" parent="1">
          <mxGeometry x="-4310" y="-2520" width="40" height="20" as="geometry" />
        </mxCell>
        <mxCell id="-ABMfCkV0aKxUMDqAIKD-100" value="b1" style="rounded=0;whiteSpace=wrap;html=1;direction=west;fillColor=#dae8fc;strokeColor=default;" vertex="1" parent="1">
          <mxGeometry x="-4230" y="-2520" width="40" height="20" as="geometry" />
        </mxCell>
        <mxCell id="-ABMfCkV0aKxUMDqAIKD-101" value="" style="rounded=0;whiteSpace=wrap;html=1;" vertex="1" parent="1">
          <mxGeometry x="-4270" y="-2520" width="40" height="20" as="geometry" />
        </mxCell>
        <mxCell id="-ABMfCkV0aKxUMDqAIKD-102" value="" style="rounded=0;whiteSpace=wrap;html=1;direction=west;" vertex="1" parent="1">
          <mxGeometry x="-4190" y="-2520" width="40" height="20" as="geometry" />
        </mxCell>
        <mxCell id="-ABMfCkV0aKxUMDqAIKD-103" value="g1" style="rounded=0;whiteSpace=wrap;html=1;fillColor=#d5e8d4;strokeColor=default;" vertex="1" parent="1">
          <mxGeometry x="-4270" y="-2480" width="40" height="20" as="geometry" />
        </mxCell>
        <mxCell id="-ABMfCkV0aKxUMDqAIKD-104" value="b1" style="rounded=0;whiteSpace=wrap;html=1;direction=west;fillColor=#dae8fc;strokeColor=default;" vertex="1" parent="1">
          <mxGeometry x="-4190" y="-2480" width="40" height="20" as="geometry" />
        </mxCell>
        <mxCell id="-ABMfCkV0aKxUMDqAIKD-105" value="" style="rounded=0;whiteSpace=wrap;html=1;" vertex="1" parent="1">
          <mxGeometry x="-4230" y="-2480" width="40" height="20" as="geometry" />
        </mxCell>
        <mxCell id="-ABMfCkV0aKxUMDqAIKD-106" value="" style="rounded=0;whiteSpace=wrap;html=1;direction=west;" vertex="1" parent="1">
          <mxGeometry x="-4310" y="-2480" width="40" height="20" as="geometry" />
        </mxCell>
        <mxCell id="-ABMfCkV0aKxUMDqAIKD-107" value="g1" style="rounded=0;whiteSpace=wrap;html=1;fillColor=#d5e8d4;strokeColor=default;" vertex="1" parent="1">
          <mxGeometry x="-4230" y="-2440" width="40" height="20" as="geometry" />
        </mxCell>
        <mxCell id="-ABMfCkV0aKxUMDqAIKD-108" value="" style="rounded=0;whiteSpace=wrap;html=1;direction=west;" vertex="1" parent="1">
          <mxGeometry x="-4270" y="-2440" width="40" height="20" as="geometry" />
        </mxCell>
        <mxCell id="-ABMfCkV0aKxUMDqAIKD-109" value="" style="rounded=0;whiteSpace=wrap;html=1;direction=west;" vertex="1" parent="1">
          <mxGeometry x="-4190" y="-2440" width="40" height="20" as="geometry" />
        </mxCell>
        <mxCell id="-ABMfCkV0aKxUMDqAIKD-110" value="" style="rounded=0;whiteSpace=wrap;html=1;direction=west;" vertex="1" parent="1">
          <mxGeometry x="-4310" y="-2440" width="40" height="20" as="geometry" />
        </mxCell>
        <mxCell id="-ABMfCkV0aKxUMDqAIKD-111" value="a1" style="rounded=0;whiteSpace=wrap;html=1;strokeColor=default;" vertex="1" parent="1">
          <mxGeometry x="-4560" y="-2410" width="40" height="20" as="geometry" />
        </mxCell>
        <mxCell id="-ABMfCkV0aKxUMDqAIKD-113" value="r1" style="rounded=0;whiteSpace=wrap;html=1;fillColor=#f8cecc;strokeColor=default;" vertex="1" parent="1">
          <mxGeometry x="-4520" y="-2410" width="40" height="20" as="geometry" />
        </mxCell>
        <mxCell id="-ABMfCkV0aKxUMDqAIKD-115" value="" style="rounded=0;whiteSpace=wrap;html=1;" vertex="1" parent="1">
          <mxGeometry x="-4480" y="-2410" width="40" height="20" as="geometry" />
        </mxCell>
        <mxCell id="-ABMfCkV0aKxUMDqAIKD-116" value="" style="rounded=0;whiteSpace=wrap;html=1;" vertex="1" parent="1">
          <mxGeometry x="-4440" y="-2410" width="40" height="20" as="geometry" />
        </mxCell>
        <mxCell id="-ABMfCkV0aKxUMDqAIKD-117" value="g1" style="rounded=0;whiteSpace=wrap;html=1;fillColor=#d5e8d4;strokeColor=default;" vertex="1" parent="1">
          <mxGeometry x="-4230" y="-2410" width="40" height="20" as="geometry" />
        </mxCell>
        <mxCell id="-ABMfCkV0aKxUMDqAIKD-118" value="" style="rounded=0;whiteSpace=wrap;html=1;direction=west;" vertex="1" parent="1">
          <mxGeometry x="-4270" y="-2410" width="40" height="20" as="geometry" />
        </mxCell>
        <mxCell id="-ABMfCkV0aKxUMDqAIKD-120" value="" style="rounded=0;whiteSpace=wrap;html=1;direction=west;" vertex="1" parent="1">
          <mxGeometry x="-4310" y="-2410" width="40" height="20" as="geometry" />
        </mxCell>
        <mxCell id="-ABMfCkV0aKxUMDqAIKD-121" value="b1" style="rounded=0;whiteSpace=wrap;html=1;direction=west;fillColor=#dae8fc;strokeColor=default;" vertex="1" parent="1">
          <mxGeometry x="-4190" y="-2410" width="40" height="20" as="geometry" />
        </mxCell>
        <mxCell id="-ABMfCkV0aKxUMDqAIKD-126" value="a1" style="rounded=0;whiteSpace=wrap;html=1;strokeColor=default;" vertex="1" parent="1">
          <mxGeometry x="-4440" y="-2360" width="40" height="20" as="geometry" />
        </mxCell>
        <mxCell id="-ABMfCkV0aKxUMDqAIKD-127" value="r1" style="rounded=0;whiteSpace=wrap;html=1;fillColor=#f8cecc;strokeColor=default;" vertex="1" parent="1">
          <mxGeometry x="-4400" y="-2360" width="40" height="20" as="geometry" />
        </mxCell>
        <mxCell id="-ABMfCkV0aKxUMDqAIKD-128" value="g1" style="rounded=0;whiteSpace=wrap;html=1;fillColor=#d5e8d4;strokeColor=default;" vertex="1" parent="1">
          <mxGeometry x="-4360" y="-2360" width="40" height="20" as="geometry" />
        </mxCell>
        <mxCell id="-ABMfCkV0aKxUMDqAIKD-129" value="b1" style="rounded=0;whiteSpace=wrap;html=1;direction=west;fillColor=#dae8fc;strokeColor=default;" vertex="1" parent="1">
          <mxGeometry x="-4320" y="-2360" width="40" height="20" as="geometry" />
        </mxCell>
        <mxCell id="-ABMfCkV0aKxUMDqAIKD-131" value="part2" style="text;html=1;align=center;verticalAlign=middle;resizable=0;points=[];autosize=1;strokeColor=none;fillColor=none;" vertex="1" parent="1">
          <mxGeometry x="-4590" y="-2560" width="50" height="30" as="geometry" />
        </mxCell>
        <mxCell id="-ABMfCkV0aKxUMDqAIKD-132" value="a0" style="rounded=0;whiteSpace=wrap;html=1;strokeColor=default;" vertex="1" parent="1">
          <mxGeometry x="-4400" y="-1860" width="40" height="20" as="geometry" />
        </mxCell>
        <mxCell id="-ABMfCkV0aKxUMDqAIKD-133" value="r0" style="rounded=0;whiteSpace=wrap;html=1;fillColor=#f8cecc;strokeColor=default;" vertex="1" parent="1">
          <mxGeometry x="-4360" y="-1860" width="40" height="20" as="geometry" />
        </mxCell>
        <mxCell id="-ABMfCkV0aKxUMDqAIKD-134" value="g0" style="rounded=0;whiteSpace=wrap;html=1;fillColor=#d5e8d4;strokeColor=default;" vertex="1" parent="1">
          <mxGeometry x="-4320" y="-1860" width="40" height="20" as="geometry" />
        </mxCell>
        <mxCell id="-ABMfCkV0aKxUMDqAIKD-135" value="b0" style="rounded=0;whiteSpace=wrap;html=1;direction=west;fillColor=#dae8fc;strokeColor=default;" vertex="1" parent="1">
          <mxGeometry x="-4280" y="-1860" width="40" height="20" as="geometry" />
        </mxCell>
        <mxCell id="-ABMfCkV0aKxUMDqAIKD-136" value="a2" style="rounded=0;whiteSpace=wrap;html=1;strokeColor=default;" vertex="1" parent="1">
          <mxGeometry x="-4180" y="-1860" width="40" height="20" as="geometry" />
        </mxCell>
        <mxCell id="-ABMfCkV0aKxUMDqAIKD-137" value="r2" style="rounded=0;whiteSpace=wrap;html=1;fillColor=#f8cecc;strokeColor=default;" vertex="1" parent="1">
          <mxGeometry x="-4140" y="-1860" width="40" height="20" as="geometry" />
        </mxCell>
        <mxCell id="-ABMfCkV0aKxUMDqAIKD-138" value="g2" style="rounded=0;whiteSpace=wrap;html=1;fillColor=#d5e8d4;strokeColor=default;" vertex="1" parent="1">
          <mxGeometry x="-4100" y="-1860" width="40" height="20" as="geometry" />
        </mxCell>
        <mxCell id="-ABMfCkV0aKxUMDqAIKD-139" value="b2" style="rounded=0;whiteSpace=wrap;html=1;direction=west;fillColor=#dae8fc;strokeColor=default;" vertex="1" parent="1">
          <mxGeometry x="-4060" y="-1860" width="40" height="20" as="geometry" />
        </mxCell>
        <mxCell id="-ABMfCkV0aKxUMDqAIKD-140" value="src" style="text;html=1;align=center;verticalAlign=middle;resizable=0;points=[];autosize=1;strokeColor=none;fillColor=none;" vertex="1" parent="1">
          <mxGeometry x="-4400" y="-1900" width="40" height="30" as="geometry" />
        </mxCell>
        <mxCell id="-ABMfCkV0aKxUMDqAIKD-141" value="dst" style="text;html=1;align=center;verticalAlign=middle;resizable=0;points=[];autosize=1;strokeColor=none;fillColor=none;" vertex="1" parent="1">
          <mxGeometry x="-4180" y="-1900" width="40" height="30" as="geometry" />
        </mxCell>
        <mxCell id="-ABMfCkV0aKxUMDqAIKD-179" value="" style="edgeStyle=orthogonalEdgeStyle;rounded=0;orthogonalLoop=1;jettySize=auto;html=1;entryX=0.75;entryY=0;entryDx=0;entryDy=0;" edge="1" parent="1" source="-ABMfCkV0aKxUMDqAIKD-142" target="-ABMfCkV0aKxUMDqAIKD-160">
          <mxGeometry relative="1" as="geometry" />
        </mxCell>
        <mxCell id="-ABMfCkV0aKxUMDqAIKD-142" value="a0" style="rounded=0;whiteSpace=wrap;html=1;strokeColor=default;" vertex="1" parent="1">
          <mxGeometry x="-4340" y="-1800" width="40" height="20" as="geometry" />
        </mxCell>
        <mxCell id="-ABMfCkV0aKxUMDqAIKD-180" value="" style="edgeStyle=orthogonalEdgeStyle;rounded=0;orthogonalLoop=1;jettySize=auto;html=1;entryX=0.75;entryY=0;entryDx=0;entryDy=0;" edge="1" parent="1" source="-ABMfCkV0aKxUMDqAIKD-147" target="-ABMfCkV0aKxUMDqAIKD-150">
          <mxGeometry relative="1" as="geometry" />
        </mxCell>
        <mxCell id="-ABMfCkV0aKxUMDqAIKD-147" value="&lt;span style=&quot;text-wrap-mode: nowrap;&quot;&gt;225 -&lt;/span&gt;a0" style="rounded=0;whiteSpace=wrap;html=1;strokeColor=default;" vertex="1" parent="1">
          <mxGeometry x="-4125" y="-1800" width="50" height="20" as="geometry" />
        </mxCell>
        <mxCell id="-ABMfCkV0aKxUMDqAIKD-150" value="a2" style="rounded=0;whiteSpace=wrap;html=1;strokeColor=default;" vertex="1" parent="1">
          <mxGeometry x="-4130" y="-1730" width="40" height="20" as="geometry" />
        </mxCell>
        <mxCell id="-ABMfCkV0aKxUMDqAIKD-151" value="r2" style="rounded=0;whiteSpace=wrap;html=1;fillColor=#f8cecc;strokeColor=default;" vertex="1" parent="1">
          <mxGeometry x="-4050" y="-1730" width="40" height="20" as="geometry" />
        </mxCell>
        <mxCell id="-ABMfCkV0aKxUMDqAIKD-152" value="g2" style="rounded=0;whiteSpace=wrap;html=1;fillColor=#d5e8d4;strokeColor=default;" vertex="1" parent="1">
          <mxGeometry x="-3970" y="-1730" width="40" height="20" as="geometry" />
        </mxCell>
        <mxCell id="-ABMfCkV0aKxUMDqAIKD-153" value="b2" style="rounded=0;whiteSpace=wrap;html=1;direction=west;fillColor=#dae8fc;strokeColor=default;" vertex="1" parent="1">
          <mxGeometry x="-3890" y="-1730" width="40" height="20" as="geometry" />
        </mxCell>
        <mxCell id="-ABMfCkV0aKxUMDqAIKD-154" value="a1" style="rounded=0;whiteSpace=wrap;html=1;strokeColor=default;" vertex="1" parent="1">
          <mxGeometry x="-4550" y="-1730" width="40" height="20" as="geometry" />
        </mxCell>
        <mxCell id="-ABMfCkV0aKxUMDqAIKD-155" value="r1" style="rounded=0;whiteSpace=wrap;html=1;fillColor=#f8cecc;strokeColor=default;" vertex="1" parent="1">
          <mxGeometry x="-4470" y="-1730" width="40" height="20" as="geometry" />
        </mxCell>
        <mxCell id="-ABMfCkV0aKxUMDqAIKD-156" value="g1" style="rounded=0;whiteSpace=wrap;html=1;fillColor=#d5e8d4;strokeColor=default;" vertex="1" parent="1">
          <mxGeometry x="-4390" y="-1730" width="40" height="20" as="geometry" />
        </mxCell>
        <mxCell id="-ABMfCkV0aKxUMDqAIKD-157" value="b1" style="rounded=0;whiteSpace=wrap;html=1;direction=west;fillColor=#dae8fc;strokeColor=default;" vertex="1" parent="1">
          <mxGeometry x="-4310" y="-1730" width="40" height="20" as="geometry" />
        </mxCell>
        <mxCell id="-ABMfCkV0aKxUMDqAIKD-158" value="a0" style="rounded=0;whiteSpace=wrap;html=1;strokeColor=default;" vertex="1" parent="1">
          <mxGeometry x="-4510" y="-1730" width="40" height="20" as="geometry" />
        </mxCell>
        <mxCell id="-ABMfCkV0aKxUMDqAIKD-159" value="r0" style="rounded=0;whiteSpace=wrap;html=1;fillColor=#f8cecc;strokeColor=default;" vertex="1" parent="1">
          <mxGeometry x="-4430" y="-1730" width="40" height="20" as="geometry" />
        </mxCell>
        <mxCell id="-ABMfCkV0aKxUMDqAIKD-160" value="g0" style="rounded=0;whiteSpace=wrap;html=1;fillColor=#d5e8d4;strokeColor=default;" vertex="1" parent="1">
          <mxGeometry x="-4350" y="-1730" width="40" height="20" as="geometry" />
        </mxCell>
        <mxCell id="-ABMfCkV0aKxUMDqAIKD-161" value="b0" style="rounded=0;whiteSpace=wrap;html=1;direction=west;fillColor=#dae8fc;strokeColor=default;" vertex="1" parent="1">
          <mxGeometry x="-4270" y="-1730" width="40" height="20" as="geometry" />
        </mxCell>
        <mxCell id="-ABMfCkV0aKxUMDqAIKD-162" value="a3" style="rounded=0;whiteSpace=wrap;html=1;strokeColor=default;" vertex="1" parent="1">
          <mxGeometry x="-4170" y="-1730" width="40" height="20" as="geometry" />
        </mxCell>
        <mxCell id="-ABMfCkV0aKxUMDqAIKD-163" value="r3" style="rounded=0;whiteSpace=wrap;html=1;fillColor=#f8cecc;strokeColor=default;" vertex="1" parent="1">
          <mxGeometry x="-4090" y="-1730" width="40" height="20" as="geometry" />
        </mxCell>
        <mxCell id="-ABMfCkV0aKxUMDqAIKD-164" value="g3" style="rounded=0;whiteSpace=wrap;html=1;fillColor=#d5e8d4;strokeColor=default;" vertex="1" parent="1">
          <mxGeometry x="-4010" y="-1730" width="40" height="20" as="geometry" />
        </mxCell>
        <mxCell id="-ABMfCkV0aKxUMDqAIKD-165" value="b3" style="rounded=0;whiteSpace=wrap;html=1;direction=west;fillColor=#dae8fc;strokeColor=default;" vertex="1" parent="1">
          <mxGeometry x="-3930" y="-1730" width="40" height="20" as="geometry" />
        </mxCell>
        <mxCell id="-ABMfCkV0aKxUMDqAIKD-172" value="+" style="ellipse;whiteSpace=wrap;html=1;aspect=fixed;" vertex="1" parent="1">
          <mxGeometry x="-4210" y="-1680" width="20" height="20" as="geometry" />
        </mxCell>
        <mxCell id="-ABMfCkV0aKxUMDqAIKD-173" value="x" style="ellipse;whiteSpace=wrap;html=1;aspect=fixed;" vertex="1" parent="1">
          <mxGeometry x="-4330" y="-1830" width="20" height="20" as="geometry" />
        </mxCell>
        <mxCell id="-ABMfCkV0aKxUMDqAIKD-174" value="x" style="ellipse;whiteSpace=wrap;html=1;aspect=fixed;" vertex="1" parent="1">
          <mxGeometry x="-4110" y="-1830" width="20" height="20" as="geometry" />
        </mxCell>
        <mxCell id="-ABMfCkV0aKxUMDqAIKD-181" value="a2" style="rounded=0;whiteSpace=wrap;html=1;strokeColor=default;" vertex="1" parent="1">
          <mxGeometry x="-4280" y="-1560" width="40" height="20" as="geometry" />
        </mxCell>
        <mxCell id="-ABMfCkV0aKxUMDqAIKD-183" value="a0" style="rounded=0;whiteSpace=wrap;html=1;strokeColor=default;" vertex="1" parent="1">
          <mxGeometry x="-4280" y="-1610" width="40" height="20" as="geometry" />
        </mxCell>
        <mxCell id="-ABMfCkV0aKxUMDqAIKD-184" value="r0" style="rounded=0;whiteSpace=wrap;html=1;fillColor=#f8cecc;strokeColor=default;" vertex="1" parent="1">
          <mxGeometry x="-4240" y="-1610" width="40" height="20" as="geometry" />
        </mxCell>
        <mxCell id="-ABMfCkV0aKxUMDqAIKD-185" value="g0" style="rounded=0;whiteSpace=wrap;html=1;fillColor=#d5e8d4;strokeColor=default;" vertex="1" parent="1">
          <mxGeometry x="-4200" y="-1610" width="40" height="20" as="geometry" />
        </mxCell>
        <mxCell id="-ABMfCkV0aKxUMDqAIKD-186" value="b0" style="rounded=0;whiteSpace=wrap;html=1;direction=west;fillColor=#dae8fc;strokeColor=default;" vertex="1" parent="1">
          <mxGeometry x="-4160" y="-1610" width="40" height="20" as="geometry" />
        </mxCell>
        <mxCell id="-ABMfCkV0aKxUMDqAIKD-188" value="r0" style="rounded=0;whiteSpace=wrap;html=1;fillColor=#f8cecc;strokeColor=default;" vertex="1" parent="1">
          <mxGeometry x="-4240" y="-1510" width="40" height="20" as="geometry" />
        </mxCell>
        <mxCell id="-ABMfCkV0aKxUMDqAIKD-189" value="g0" style="rounded=0;whiteSpace=wrap;html=1;fillColor=#d5e8d4;strokeColor=default;" vertex="1" parent="1">
          <mxGeometry x="-4200" y="-1510" width="40" height="20" as="geometry" />
        </mxCell>
        <mxCell id="-ABMfCkV0aKxUMDqAIKD-190" value="b0" style="rounded=0;whiteSpace=wrap;html=1;direction=west;fillColor=#dae8fc;strokeColor=default;" vertex="1" parent="1">
          <mxGeometry x="-4160" y="-1510" width="40" height="20" as="geometry" />
        </mxCell>
        <mxCell id="-ABMfCkV0aKxUMDqAIKD-191" value="a2" style="rounded=0;whiteSpace=wrap;html=1;strokeColor=default;" vertex="1" parent="1">
          <mxGeometry x="-4280" y="-1510" width="40" height="20" as="geometry" />
        </mxCell>
        <mxCell id="-ABMfCkV0aKxUMDqAIKD-227" value="r2" style="rounded=0;whiteSpace=wrap;html=1;fillColor=#f8cecc;strokeColor=default;" vertex="1" parent="1">
          <mxGeometry x="-4400" y="-1300" width="50" height="20" as="geometry" />
        </mxCell>
        <mxCell id="-ABMfCkV0aKxUMDqAIKD-228" value="" style="rounded=0;whiteSpace=wrap;html=1;strokeColor=default;" vertex="1" parent="1">
          <mxGeometry x="-4350" y="-1300" width="110" height="20" as="geometry" />
        </mxCell>
        <mxCell id="-ABMfCkV0aKxUMDqAIKD-229" value="" style="rounded=0;whiteSpace=wrap;html=1;strokeColor=default;" vertex="1" parent="1">
          <mxGeometry x="-4190" y="-1300" width="110" height="20" as="geometry" />
        </mxCell>
        <mxCell id="-ABMfCkV0aKxUMDqAIKD-230" value="r0" style="rounded=0;whiteSpace=wrap;html=1;fillColor=#f8cecc;strokeColor=default;" vertex="1" parent="1">
          <mxGeometry x="-4240" y="-1300" width="50" height="20" as="geometry" />
        </mxCell>
        <mxCell id="-ABMfCkV0aKxUMDqAIKD-231" value="r2" style="rounded=0;whiteSpace=wrap;html=1;fillColor=#f8cecc;strokeColor=default;" vertex="1" parent="1">
          <mxGeometry x="-4360" y="-1260" width="50" height="20" as="geometry" />
        </mxCell>
        <mxCell id="-ABMfCkV0aKxUMDqAIKD-341" style="edgeStyle=orthogonalEdgeStyle;rounded=0;orthogonalLoop=1;jettySize=auto;html=1;entryX=0;entryY=0;entryDx=0;entryDy=0;exitX=0;exitY=1;exitDx=0;exitDy=0;dashed=1;dashPattern=8 8;" edge="1" parent="1" source="-ABMfCkV0aKxUMDqAIKD-232" target="-ABMfCkV0aKxUMDqAIKD-296">
          <mxGeometry relative="1" as="geometry" />
        </mxCell>
        <mxCell id="-ABMfCkV0aKxUMDqAIKD-232" value="" style="rounded=0;whiteSpace=wrap;html=1;strokeColor=default;" vertex="1" parent="1">
          <mxGeometry x="-4310" y="-1260" width="110" height="20" as="geometry" />
        </mxCell>
        <mxCell id="-ABMfCkV0aKxUMDqAIKD-233" value="" style="rounded=0;whiteSpace=wrap;html=1;strokeColor=default;" vertex="1" parent="1">
          <mxGeometry x="-4150" y="-1260" width="70" height="20" as="geometry" />
        </mxCell>
        <mxCell id="-ABMfCkV0aKxUMDqAIKD-234" value="r0" style="rounded=0;whiteSpace=wrap;html=1;fillColor=#f8cecc;strokeColor=default;" vertex="1" parent="1">
          <mxGeometry x="-4200" y="-1260" width="50" height="20" as="geometry" />
        </mxCell>
        <mxCell id="-ABMfCkV0aKxUMDqAIKD-235" value="" style="rounded=0;whiteSpace=wrap;html=1;strokeColor=default;" vertex="1" parent="1">
          <mxGeometry x="-4400" y="-1260" width="40" height="20" as="geometry" />
        </mxCell>
        <mxCell id="-ABMfCkV0aKxUMDqAIKD-243" value="*&amp;nbsp; &amp;nbsp;0x0101001&amp;nbsp; &amp;nbsp; &amp;nbsp; =" style="text;html=1;align=center;verticalAlign=middle;resizable=0;points=[];autosize=1;strokeColor=none;fillColor=none;" vertex="1" parent="1">
          <mxGeometry x="-4170" y="-1185" width="120" height="30" as="geometry" />
        </mxCell>
        <mxCell id="-ABMfCkV0aKxUMDqAIKD-244" value="a0" style="rounded=0;whiteSpace=wrap;html=1;strokeColor=default;" vertex="1" parent="1">
          <mxGeometry x="-4260" y="-1180" width="80" height="20" as="geometry" />
        </mxCell>
        <mxCell id="-ABMfCkV0aKxUMDqAIKD-295" value="r2" style="rounded=0;whiteSpace=wrap;html=1;fillColor=#f8cecc;strokeColor=default;" vertex="1" parent="1">
          <mxGeometry x="-4350" y="-1110" width="40" height="20" as="geometry" />
        </mxCell>
        <mxCell id="-ABMfCkV0aKxUMDqAIKD-296" value="" style="rounded=0;whiteSpace=wrap;html=1;strokeColor=default;" vertex="1" parent="1">
          <mxGeometry x="-4310" y="-1110" width="70" height="20" as="geometry" />
        </mxCell>
        <mxCell id="-ABMfCkV0aKxUMDqAIKD-297" value="r3" style="rounded=0;whiteSpace=wrap;html=1;fillColor=#f8cecc;strokeColor=default;" vertex="1" parent="1">
          <mxGeometry x="-4400" y="-1110" width="50" height="20" as="geometry" />
        </mxCell>
        <mxCell id="-ABMfCkV0aKxUMDqAIKD-298" value="r0" style="rounded=0;whiteSpace=wrap;html=1;fillColor=#f8cecc;strokeColor=default;" vertex="1" parent="1">
          <mxGeometry x="-4190" y="-1110" width="40" height="20" as="geometry" />
        </mxCell>
        <mxCell id="-ABMfCkV0aKxUMDqAIKD-299" value="" style="rounded=0;whiteSpace=wrap;html=1;strokeColor=default;" vertex="1" parent="1">
          <mxGeometry x="-4150" y="-1110" width="70" height="20" as="geometry" />
        </mxCell>
        <mxCell id="-ABMfCkV0aKxUMDqAIKD-300" value="r1" style="rounded=0;whiteSpace=wrap;html=1;fillColor=#f8cecc;strokeColor=default;" vertex="1" parent="1">
          <mxGeometry x="-4240" y="-1110" width="50" height="20" as="geometry" />
        </mxCell>
        <mxCell id="-ABMfCkV0aKxUMDqAIKD-337" style="rounded=0;orthogonalLoop=1;jettySize=auto;html=1;entryX=0;entryY=1;entryDx=0;entryDy=0;exitX=0;exitY=1;exitDx=0;exitDy=0;endArrow=none;endFill=0;" edge="1" parent="1" source="-ABMfCkV0aKxUMDqAIKD-324" target="-ABMfCkV0aKxUMDqAIKD-664">
          <mxGeometry relative="1" as="geometry">
            <mxPoint x="-3880" y="-890" as="targetPoint" />
          </mxGeometry>
        </mxCell>
        <mxCell id="-ABMfCkV0aKxUMDqAIKD-320" value="" style="rounded=0;whiteSpace=wrap;html=1;strokeColor=default;" vertex="1" parent="1">
          <mxGeometry x="-4350" y="-1020" width="110" height="20" as="geometry" />
        </mxCell>
        <mxCell id="-ABMfCkV0aKxUMDqAIKD-321" value="r3" style="rounded=0;whiteSpace=wrap;html=1;fillColor=#f8cecc;strokeColor=default;" vertex="1" parent="1">
          <mxGeometry x="-4400" y="-1020" width="50" height="20" as="geometry" />
        </mxCell>
        <mxCell id="-ABMfCkV0aKxUMDqAIKD-323" value="" style="rounded=0;whiteSpace=wrap;html=1;strokeColor=default;" vertex="1" parent="1">
          <mxGeometry x="-4190" y="-1020" width="110" height="20" as="geometry" />
        </mxCell>
        <mxCell id="-ABMfCkV0aKxUMDqAIKD-324" value="r1" style="rounded=0;whiteSpace=wrap;html=1;fillColor=#f8cecc;strokeColor=default;" vertex="1" parent="1">
          <mxGeometry x="-4240" y="-1020" width="50" height="20" as="geometry" />
        </mxCell>
        <mxCell id="-ABMfCkV0aKxUMDqAIKD-334" style="rounded=0;orthogonalLoop=1;jettySize=auto;html=1;entryX=0;entryY=0;entryDx=0;entryDy=0;exitX=0;exitY=0;exitDx=0;exitDy=0;endArrow=none;endFill=0;" edge="1" parent="1" source="-ABMfCkV0aKxUMDqAIKD-657" target="-ABMfCkV0aKxUMDqAIKD-230">
          <mxGeometry relative="1" as="geometry">
            <mxPoint x="-3880" y="-1350" as="sourcePoint" />
          </mxGeometry>
        </mxCell>
        <mxCell id="-ABMfCkV0aKxUMDqAIKD-347" value="a0" style="rounded=0;whiteSpace=wrap;html=1;strokeColor=default;" vertex="1" parent="1">
          <mxGeometry x="-3855" y="-510" width="80" height="20" as="geometry" />
        </mxCell>
        <mxCell id="-ABMfCkV0aKxUMDqAIKD-348" value="a0" style="rounded=0;whiteSpace=wrap;html=1;strokeColor=default;" vertex="1" parent="1">
          <mxGeometry x="-3775" y="-510" width="80" height="20" as="geometry" />
        </mxCell>
        <mxCell id="-ABMfCkV0aKxUMDqAIKD-349" value="a0" style="rounded=0;whiteSpace=wrap;html=1;strokeColor=default;" vertex="1" parent="1">
          <mxGeometry x="-3695" y="-510" width="80" height="20" as="geometry" />
        </mxCell>
        <mxCell id="-ABMfCkV0aKxUMDqAIKD-350" value="a0" style="rounded=0;whiteSpace=wrap;html=1;strokeColor=default;" vertex="1" parent="1">
          <mxGeometry x="-3615" y="-510" width="80" height="20" as="geometry" />
        </mxCell>
        <mxCell id="-ABMfCkV0aKxUMDqAIKD-351" value="g2" style="rounded=0;whiteSpace=wrap;html=1;fillColor=#d5e8d4;strokeColor=default;" vertex="1" parent="1">
          <mxGeometry x="-3805" y="-630" width="60" height="20" as="geometry" />
        </mxCell>
        <mxCell id="-ABMfCkV0aKxUMDqAIKD-352" value="" style="rounded=0;whiteSpace=wrap;html=1;strokeColor=default;" vertex="1" parent="1">
          <mxGeometry x="-3855" y="-630" width="50" height="20" as="geometry" />
        </mxCell>
        <mxCell id="-ABMfCkV0aKxUMDqAIKD-353" value="" style="rounded=0;whiteSpace=wrap;html=1;strokeColor=default;" vertex="1" parent="1">
          <mxGeometry x="-3745" y="-630" width="50" height="20" as="geometry" />
        </mxCell>
        <mxCell id="-ABMfCkV0aKxUMDqAIKD-354" value="g0" style="rounded=0;whiteSpace=wrap;html=1;fillColor=#d5e8d4;strokeColor=default;" vertex="1" parent="1">
          <mxGeometry x="-3645" y="-630" width="60" height="20" as="geometry" />
        </mxCell>
        <mxCell id="-ABMfCkV0aKxUMDqAIKD-355" value="" style="rounded=0;whiteSpace=wrap;html=1;strokeColor=default;" vertex="1" parent="1">
          <mxGeometry x="-3695" y="-630" width="50" height="20" as="geometry" />
        </mxCell>
        <mxCell id="-ABMfCkV0aKxUMDqAIKD-356" value="" style="rounded=0;whiteSpace=wrap;html=1;strokeColor=default;" vertex="1" parent="1">
          <mxGeometry x="-3585" y="-630" width="50" height="20" as="geometry" />
        </mxCell>
        <mxCell id="-ABMfCkV0aKxUMDqAIKD-357" value="r2" style="rounded=0;whiteSpace=wrap;html=1;fillColor=#f8cecc;strokeColor=default;" vertex="1" parent="1">
          <mxGeometry x="-4214" y="-630" width="50" height="20" as="geometry" />
        </mxCell>
        <mxCell id="-ABMfCkV0aKxUMDqAIKD-358" value="" style="rounded=0;whiteSpace=wrap;html=1;strokeColor=default;" vertex="1" parent="1">
          <mxGeometry x="-4165" y="-630" width="70" height="20" as="geometry" />
        </mxCell>
        <mxCell id="-ABMfCkV0aKxUMDqAIKD-359" value="" style="rounded=0;whiteSpace=wrap;html=1;strokeColor=default;" vertex="1" parent="1">
          <mxGeometry x="-4005" y="-630" width="70" height="20" as="geometry" />
        </mxCell>
        <mxCell id="-ABMfCkV0aKxUMDqAIKD-360" value="r0" style="rounded=0;whiteSpace=wrap;html=1;fillColor=#f8cecc;strokeColor=default;" vertex="1" parent="1">
          <mxGeometry x="-4055" y="-630" width="50" height="20" as="geometry" />
        </mxCell>
        <mxCell id="-ABMfCkV0aKxUMDqAIKD-362" style="edgeStyle=orthogonalEdgeStyle;rounded=0;orthogonalLoop=1;jettySize=auto;html=1;entryX=0;entryY=0;entryDx=0;entryDy=0;dashed=1;dashPattern=8 8;" edge="1" parent="1" target="-ABMfCkV0aKxUMDqAIKD-385">
          <mxGeometry relative="1" as="geometry">
            <mxPoint x="-4125" y="-540" as="sourcePoint" />
          </mxGeometry>
        </mxCell>
        <mxCell id="-ABMfCkV0aKxUMDqAIKD-367" value="x" style="ellipse;whiteSpace=wrap;html=1;aspect=fixed;" vertex="1" parent="1">
          <mxGeometry x="-3705" y="-560" width="20" height="20" as="geometry" />
        </mxCell>
        <mxCell id="-ABMfCkV0aKxUMDqAIKD-368" value="*&amp;nbsp; &amp;nbsp;0x0101001&amp;nbsp; &amp;nbsp; &amp;nbsp; =" style="text;html=1;align=center;verticalAlign=middle;resizable=0;points=[];autosize=1;strokeColor=none;fillColor=none;" vertex="1" parent="1">
          <mxGeometry x="-3985" y="-515" width="120" height="30" as="geometry" />
        </mxCell>
        <mxCell id="-ABMfCkV0aKxUMDqAIKD-369" value="a0" style="rounded=0;whiteSpace=wrap;html=1;strokeColor=default;" vertex="1" parent="1">
          <mxGeometry x="-4075" y="-510" width="80" height="20" as="geometry" />
        </mxCell>
        <mxCell id="-ABMfCkV0aKxUMDqAIKD-376" value="g2" style="rounded=0;whiteSpace=wrap;html=1;fillColor=#d5e8d4;strokeColor=default;" vertex="1" parent="1">
          <mxGeometry x="-3785" y="-440" width="40" height="20" as="geometry" />
        </mxCell>
        <mxCell id="-ABMfCkV0aKxUMDqAIKD-377" value="" style="rounded=0;whiteSpace=wrap;html=1;strokeColor=default;" vertex="1" parent="1">
          <mxGeometry x="-3855" y="-440" width="10" height="20" as="geometry" />
        </mxCell>
        <mxCell id="-ABMfCkV0aKxUMDqAIKD-378" value="" style="rounded=0;whiteSpace=wrap;html=1;strokeColor=default;" vertex="1" parent="1">
          <mxGeometry x="-3745" y="-440" width="50" height="20" as="geometry" />
        </mxCell>
        <mxCell id="-ABMfCkV0aKxUMDqAIKD-379" value="g3" style="rounded=0;whiteSpace=wrap;html=1;fillColor=#d5e8d4;strokeColor=default;" vertex="1" parent="1">
          <mxGeometry x="-3845" y="-440" width="60" height="20" as="geometry" />
        </mxCell>
        <mxCell id="-ABMfCkV0aKxUMDqAIKD-380" value="g0" style="rounded=0;whiteSpace=wrap;html=1;fillColor=#d5e8d4;strokeColor=default;" vertex="1" parent="1">
          <mxGeometry x="-3625" y="-440" width="40" height="20" as="geometry" />
        </mxCell>
        <mxCell id="-ABMfCkV0aKxUMDqAIKD-381" value="" style="rounded=0;whiteSpace=wrap;html=1;strokeColor=default;" vertex="1" parent="1">
          <mxGeometry x="-3695" y="-440" width="10" height="20" as="geometry" />
        </mxCell>
        <mxCell id="-ABMfCkV0aKxUMDqAIKD-382" value="" style="rounded=0;whiteSpace=wrap;html=1;strokeColor=default;" vertex="1" parent="1">
          <mxGeometry x="-3585" y="-440" width="50" height="20" as="geometry" />
        </mxCell>
        <mxCell id="-ABMfCkV0aKxUMDqAIKD-383" value="g1" style="rounded=0;whiteSpace=wrap;html=1;fillColor=#d5e8d4;strokeColor=default;" vertex="1" parent="1">
          <mxGeometry x="-3685" y="-440" width="60" height="20" as="geometry" />
        </mxCell>
        <mxCell id="-ABMfCkV0aKxUMDqAIKD-384" value="r0" style="rounded=0;whiteSpace=wrap;html=1;fillColor=#f8cecc;strokeColor=default;" vertex="1" parent="1">
          <mxGeometry x="-4165" y="-440" width="40" height="20" as="geometry" />
        </mxCell>
        <mxCell id="-ABMfCkV0aKxUMDqAIKD-385" value="" style="rounded=0;whiteSpace=wrap;html=1;strokeColor=default;" vertex="1" parent="1">
          <mxGeometry x="-4125" y="-440" width="70" height="20" as="geometry" />
        </mxCell>
        <mxCell id="-ABMfCkV0aKxUMDqAIKD-685" style="edgeStyle=orthogonalEdgeStyle;rounded=0;orthogonalLoop=1;jettySize=auto;html=1;curved=1;exitX=0;exitY=0.5;exitDx=0;exitDy=0;entryX=0.5;entryY=0;entryDx=0;entryDy=0;" edge="1" parent="1" source="-ABMfCkV0aKxUMDqAIKD-386" target="-ABMfCkV0aKxUMDqAIKD-677">
          <mxGeometry relative="1" as="geometry">
            <mxPoint x="-4330" y="-340" as="targetPoint" />
          </mxGeometry>
        </mxCell>
        <mxCell id="-ABMfCkV0aKxUMDqAIKD-386" value="r1" style="rounded=0;whiteSpace=wrap;html=1;fillColor=#f8cecc;strokeColor=default;" vertex="1" parent="1">
          <mxGeometry x="-4215" y="-440" width="50" height="20" as="geometry" />
        </mxCell>
        <mxCell id="-ABMfCkV0aKxUMDqAIKD-388" value="" style="rounded=0;whiteSpace=wrap;html=1;strokeColor=default;" vertex="1" parent="1">
          <mxGeometry x="-4055" y="-440" width="70" height="20" as="geometry" />
        </mxCell>
        <mxCell id="-ABMfCkV0aKxUMDqAIKD-395" value="" style="rounded=0;whiteSpace=wrap;html=1;strokeColor=default;" vertex="1" parent="1">
          <mxGeometry x="-3855" y="-390" width="10" height="20" as="geometry" />
        </mxCell>
        <mxCell id="-ABMfCkV0aKxUMDqAIKD-396" value="" style="rounded=0;whiteSpace=wrap;html=1;strokeColor=default;" vertex="1" parent="1">
          <mxGeometry x="-3785" y="-390" width="90" height="20" as="geometry" />
        </mxCell>
        <mxCell id="-ABMfCkV0aKxUMDqAIKD-397" value="g3" style="rounded=0;whiteSpace=wrap;html=1;fillColor=#d5e8d4;strokeColor=default;" vertex="1" parent="1">
          <mxGeometry x="-3845" y="-390" width="60" height="20" as="geometry" />
        </mxCell>
        <mxCell id="-ABMfCkV0aKxUMDqAIKD-398" value="" style="rounded=0;whiteSpace=wrap;html=1;strokeColor=default;" vertex="1" parent="1">
          <mxGeometry x="-3695" y="-390" width="10" height="20" as="geometry" />
        </mxCell>
        <mxCell id="-ABMfCkV0aKxUMDqAIKD-399" value="" style="rounded=0;whiteSpace=wrap;html=1;strokeColor=default;" vertex="1" parent="1">
          <mxGeometry x="-3625" y="-390" width="90" height="20" as="geometry" />
        </mxCell>
        <mxCell id="-ABMfCkV0aKxUMDqAIKD-400" value="g1" style="rounded=0;whiteSpace=wrap;html=1;fillColor=#d5e8d4;strokeColor=default;" vertex="1" parent="1">
          <mxGeometry x="-3685" y="-390" width="60" height="20" as="geometry" />
        </mxCell>
        <mxCell id="-ABMfCkV0aKxUMDqAIKD-401" style="rounded=0;orthogonalLoop=1;jettySize=auto;html=1;entryX=0;entryY=1;entryDx=0;entryDy=0;exitX=0;exitY=1;exitDx=0;exitDy=0;endArrow=none;endFill=0;" edge="1" parent="1" source="-ABMfCkV0aKxUMDqAIKD-405" target="-ABMfCkV0aKxUMDqAIKD-423">
          <mxGeometry relative="1" as="geometry" />
        </mxCell>
        <mxCell id="-ABMfCkV0aKxUMDqAIKD-402" value="" style="rounded=0;whiteSpace=wrap;html=1;strokeColor=default;" vertex="1" parent="1">
          <mxGeometry x="-4165" y="-240" width="65" height="20" as="geometry" />
        </mxCell>
        <mxCell id="-ABMfCkV0aKxUMDqAIKD-403" value="r3" style="rounded=0;whiteSpace=wrap;html=1;fillColor=#f8cecc;strokeColor=default;" vertex="1" parent="1">
          <mxGeometry x="-4215" y="-240" width="50" height="20" as="geometry" />
        </mxCell>
        <mxCell id="-ABMfCkV0aKxUMDqAIKD-404" value="" style="rounded=0;whiteSpace=wrap;html=1;strokeColor=default;" vertex="1" parent="1">
          <mxGeometry x="-4005" y="-240" width="65" height="20" as="geometry" />
        </mxCell>
        <mxCell id="-ABMfCkV0aKxUMDqAIKD-405" value="r1" style="rounded=0;whiteSpace=wrap;html=1;fillColor=#f8cecc;strokeColor=default;" vertex="1" parent="1">
          <mxGeometry x="-4055" y="-240" width="50" height="20" as="geometry" />
        </mxCell>
        <mxCell id="-ABMfCkV0aKxUMDqAIKD-406" value="g3" style="rounded=0;whiteSpace=wrap;html=1;fillColor=#d5e8d4;strokeColor=default;" vertex="1" parent="1">
          <mxGeometry x="-3805" y="-240" width="60" height="20" as="geometry" />
        </mxCell>
        <mxCell id="-ABMfCkV0aKxUMDqAIKD-407" value="" style="rounded=0;whiteSpace=wrap;html=1;strokeColor=default;" vertex="1" parent="1">
          <mxGeometry x="-3855" y="-240" width="50" height="20" as="geometry" />
        </mxCell>
        <mxCell id="-ABMfCkV0aKxUMDqAIKD-408" value="" style="rounded=0;whiteSpace=wrap;html=1;strokeColor=default;" vertex="1" parent="1">
          <mxGeometry x="-3745" y="-240" width="50" height="20" as="geometry" />
        </mxCell>
        <mxCell id="-ABMfCkV0aKxUMDqAIKD-409" value="g1" style="rounded=0;whiteSpace=wrap;html=1;fillColor=#d5e8d4;strokeColor=default;" vertex="1" parent="1">
          <mxGeometry x="-3645" y="-240" width="60" height="20" as="geometry" />
        </mxCell>
        <mxCell id="-ABMfCkV0aKxUMDqAIKD-410" style="rounded=0;orthogonalLoop=1;jettySize=auto;html=1;entryX=0;entryY=1;entryDx=0;entryDy=0;exitX=0;exitY=1;exitDx=0;exitDy=0;endArrow=none;endFill=0;" edge="1" parent="1" source="-ABMfCkV0aKxUMDqAIKD-411" target="-ABMfCkV0aKxUMDqAIKD-423">
          <mxGeometry relative="1" as="geometry" />
        </mxCell>
        <mxCell id="-ABMfCkV0aKxUMDqAIKD-411" value="" style="rounded=0;whiteSpace=wrap;html=1;strokeColor=default;" vertex="1" parent="1">
          <mxGeometry x="-3695" y="-240" width="50" height="20" as="geometry" />
        </mxCell>
        <mxCell id="-ABMfCkV0aKxUMDqAIKD-412" value="" style="rounded=0;whiteSpace=wrap;html=1;strokeColor=default;" vertex="1" parent="1">
          <mxGeometry x="-3585" y="-240" width="50" height="20" as="geometry" />
        </mxCell>
        <mxCell id="-ABMfCkV0aKxUMDqAIKD-413" value="" style="group" vertex="1" connectable="0" parent="1">
          <mxGeometry x="-4040" y="-700" width="320" height="20" as="geometry" />
        </mxCell>
        <mxCell id="-ABMfCkV0aKxUMDqAIKD-414" value="r2" style="rounded=0;whiteSpace=wrap;html=1;fillColor=#f8cecc;strokeColor=default;" vertex="1" parent="-ABMfCkV0aKxUMDqAIKD-413">
          <mxGeometry width="50" height="20" as="geometry" />
        </mxCell>
        <mxCell id="-ABMfCkV0aKxUMDqAIKD-415" value="g2" style="rounded=0;whiteSpace=wrap;html=1;fillColor=#d5e8d4;strokeColor=default;" vertex="1" parent="-ABMfCkV0aKxUMDqAIKD-413">
          <mxGeometry x="50" width="60" height="20" as="geometry" />
        </mxCell>
        <mxCell id="-ABMfCkV0aKxUMDqAIKD-416" value="b2" style="rounded=0;whiteSpace=wrap;html=1;direction=west;fillColor=#dae8fc;strokeColor=default;" vertex="1" parent="-ABMfCkV0aKxUMDqAIKD-413">
          <mxGeometry x="110" width="50" height="20" as="geometry" />
        </mxCell>
        <mxCell id="-ABMfCkV0aKxUMDqAIKD-417" value="r0" style="rounded=0;whiteSpace=wrap;html=1;fillColor=#f8cecc;strokeColor=default;" vertex="1" parent="-ABMfCkV0aKxUMDqAIKD-413">
          <mxGeometry x="160" width="50" height="20" as="geometry" />
        </mxCell>
        <mxCell id="-ABMfCkV0aKxUMDqAIKD-418" value="g0" style="rounded=0;whiteSpace=wrap;html=1;fillColor=#d5e8d4;strokeColor=default;" vertex="1" parent="-ABMfCkV0aKxUMDqAIKD-413">
          <mxGeometry x="210" width="60" height="20" as="geometry" />
        </mxCell>
        <mxCell id="-ABMfCkV0aKxUMDqAIKD-419" value="b0" style="rounded=0;whiteSpace=wrap;html=1;direction=west;fillColor=#dae8fc;strokeColor=default;" vertex="1" parent="-ABMfCkV0aKxUMDqAIKD-413">
          <mxGeometry x="270" width="50" height="20" as="geometry" />
        </mxCell>
        <mxCell id="-ABMfCkV0aKxUMDqAIKD-420" value="" style="group" vertex="1" connectable="0" parent="1">
          <mxGeometry x="-4040" y="-110" width="320" height="20" as="geometry" />
        </mxCell>
        <mxCell id="-ABMfCkV0aKxUMDqAIKD-421" value="r3" style="rounded=0;whiteSpace=wrap;html=1;fillColor=#f8cecc;strokeColor=default;" vertex="1" parent="-ABMfCkV0aKxUMDqAIKD-420">
          <mxGeometry width="50" height="20" as="geometry" />
        </mxCell>
        <mxCell id="-ABMfCkV0aKxUMDqAIKD-422" value="g3" style="rounded=0;whiteSpace=wrap;html=1;fillColor=#d5e8d4;strokeColor=default;" vertex="1" parent="-ABMfCkV0aKxUMDqAIKD-420">
          <mxGeometry x="50" width="60" height="20" as="geometry" />
        </mxCell>
        <mxCell id="-ABMfCkV0aKxUMDqAIKD-423" value="b3" style="rounded=0;whiteSpace=wrap;html=1;direction=west;fillColor=#dae8fc;strokeColor=default;" vertex="1" parent="-ABMfCkV0aKxUMDqAIKD-420">
          <mxGeometry x="110" width="50" height="20" as="geometry" />
        </mxCell>
        <mxCell id="-ABMfCkV0aKxUMDqAIKD-424" value="r1" style="rounded=0;whiteSpace=wrap;html=1;fillColor=#f8cecc;strokeColor=default;" vertex="1" parent="-ABMfCkV0aKxUMDqAIKD-420">
          <mxGeometry x="160" width="50" height="20" as="geometry" />
        </mxCell>
        <mxCell id="-ABMfCkV0aKxUMDqAIKD-425" value="g1" style="rounded=0;whiteSpace=wrap;html=1;fillColor=#d5e8d4;strokeColor=default;" vertex="1" parent="-ABMfCkV0aKxUMDqAIKD-420">
          <mxGeometry x="210" width="60" height="20" as="geometry" />
        </mxCell>
        <mxCell id="-ABMfCkV0aKxUMDqAIKD-426" value="b1" style="rounded=0;whiteSpace=wrap;html=1;direction=west;fillColor=#dae8fc;strokeColor=default;" vertex="1" parent="-ABMfCkV0aKxUMDqAIKD-420">
          <mxGeometry x="270" width="50" height="20" as="geometry" />
        </mxCell>
        <mxCell id="-ABMfCkV0aKxUMDqAIKD-427" style="rounded=0;orthogonalLoop=1;jettySize=auto;html=1;entryX=0;entryY=0;entryDx=0;entryDy=0;exitX=0;exitY=1;exitDx=0;exitDy=0;endArrow=none;endFill=0;" edge="1" parent="1" source="-ABMfCkV0aKxUMDqAIKD-417" target="-ABMfCkV0aKxUMDqAIKD-360">
          <mxGeometry relative="1" as="geometry" />
        </mxCell>
        <mxCell id="-ABMfCkV0aKxUMDqAIKD-428" style="rounded=0;orthogonalLoop=1;jettySize=auto;html=1;entryX=0;entryY=0;entryDx=0;entryDy=0;exitX=0;exitY=1;exitDx=0;exitDy=0;endArrow=none;endFill=0;" edge="1" parent="1" source="-ABMfCkV0aKxUMDqAIKD-417" target="-ABMfCkV0aKxUMDqAIKD-355">
          <mxGeometry relative="1" as="geometry" />
        </mxCell>
        <mxCell id="-ABMfCkV0aKxUMDqAIKD-518" value="b2" style="rounded=0;whiteSpace=wrap;html=1;direction=west;fillColor=#dae8fc;strokeColor=default;" vertex="1" parent="1">
          <mxGeometry x="-4105" y="-630" width="50" height="20" as="geometry" />
        </mxCell>
        <mxCell id="-ABMfCkV0aKxUMDqAIKD-519" value="b0" style="rounded=0;whiteSpace=wrap;html=1;direction=west;fillColor=#dae8fc;strokeColor=default;" vertex="1" parent="1">
          <mxGeometry x="-3935" y="-630" width="40" height="20" as="geometry" />
        </mxCell>
        <mxCell id="-ABMfCkV0aKxUMDqAIKD-530" value="r2" style="rounded=0;whiteSpace=wrap;html=1;fillColor=#f8cecc;strokeColor=default;" vertex="1" parent="1">
          <mxGeometry x="-4165" y="-400" width="40" height="20" as="geometry" />
        </mxCell>
        <mxCell id="-ABMfCkV0aKxUMDqAIKD-683" style="edgeStyle=orthogonalEdgeStyle;rounded=0;orthogonalLoop=1;jettySize=auto;html=1;entryX=1;entryY=0.5;entryDx=0;entryDy=0;exitX=1;exitY=1;exitDx=0;exitDy=0;curved=1;" edge="1" parent="1" source="-ABMfCkV0aKxUMDqAIKD-531" target="-ABMfCkV0aKxUMDqAIKD-677">
          <mxGeometry relative="1" as="geometry">
            <mxPoint x="-4125" y="-330" as="targetPoint" />
          </mxGeometry>
        </mxCell>
        <mxCell id="-ABMfCkV0aKxUMDqAIKD-531" value="" style="rounded=0;whiteSpace=wrap;html=1;strokeColor=default;" vertex="1" parent="1">
          <mxGeometry x="-4125" y="-400" width="70" height="20" as="geometry" />
        </mxCell>
        <mxCell id="-ABMfCkV0aKxUMDqAIKD-532" value="r3" style="rounded=0;whiteSpace=wrap;html=1;fillColor=#f8cecc;strokeColor=default;" vertex="1" parent="1">
          <mxGeometry x="-4215" y="-400" width="50" height="20" as="geometry" />
        </mxCell>
        <mxCell id="-ABMfCkV0aKxUMDqAIKD-536" value="b0" style="rounded=0;whiteSpace=wrap;html=1;direction=west;fillColor=#dae8fc;strokeColor=default;" vertex="1" parent="1">
          <mxGeometry x="-3935" y="-440" width="40" height="20" as="geometry" />
        </mxCell>
        <mxCell id="-ABMfCkV0aKxUMDqAIKD-537" value="b1" style="rounded=0;whiteSpace=wrap;html=1;direction=west;fillColor=#dae8fc;strokeColor=default;" vertex="1" parent="1">
          <mxGeometry x="-3985" y="-440" width="50" height="20" as="geometry" />
        </mxCell>
        <mxCell id="-ABMfCkV0aKxUMDqAIKD-539" value="" style="rounded=0;whiteSpace=wrap;html=1;strokeColor=default;" vertex="1" parent="1">
          <mxGeometry x="-4055" y="-400" width="70" height="20" as="geometry" />
        </mxCell>
        <mxCell id="-ABMfCkV0aKxUMDqAIKD-540" value="b2" style="rounded=0;whiteSpace=wrap;html=1;direction=west;fillColor=#dae8fc;strokeColor=default;" vertex="1" parent="1">
          <mxGeometry x="-3935" y="-400" width="40" height="20" as="geometry" />
        </mxCell>
        <mxCell id="-ABMfCkV0aKxUMDqAIKD-541" value="b2" style="rounded=0;whiteSpace=wrap;html=1;direction=west;fillColor=#dae8fc;strokeColor=default;" vertex="1" parent="1">
          <mxGeometry x="-3985" y="-400" width="50" height="20" as="geometry" />
        </mxCell>
        <mxCell id="-ABMfCkV0aKxUMDqAIKD-606" value="" style="rounded=0;whiteSpace=wrap;html=1;strokeColor=default;" vertex="1" parent="1">
          <mxGeometry x="-3680" y="-1300" width="110" height="20" as="geometry" />
        </mxCell>
        <mxCell id="-ABMfCkV0aKxUMDqAIKD-607" style="edgeStyle=orthogonalEdgeStyle;rounded=0;orthogonalLoop=1;jettySize=auto;html=1;entryX=0;entryY=0;entryDx=0;entryDy=0;exitX=0;exitY=1;exitDx=0;exitDy=0;dashed=1;dashPattern=8 8;" edge="1" parent="1" source="-ABMfCkV0aKxUMDqAIKD-608" target="-ABMfCkV0aKxUMDqAIKD-625">
          <mxGeometry relative="1" as="geometry" />
        </mxCell>
        <mxCell id="-ABMfCkV0aKxUMDqAIKD-608" value="" style="rounded=0;whiteSpace=wrap;html=1;strokeColor=default;" vertex="1" parent="1">
          <mxGeometry x="-3520" y="-1300" width="110" height="20" as="geometry" />
        </mxCell>
        <mxCell id="-ABMfCkV0aKxUMDqAIKD-609" value="b2" style="rounded=0;whiteSpace=wrap;html=1;direction=west;fillColor=#dae8fc;strokeColor=default;" vertex="1" parent="1">
          <mxGeometry x="-3570" y="-1300" width="50" height="20" as="geometry" />
        </mxCell>
        <mxCell id="-ABMfCkV0aKxUMDqAIKD-610" value="b0" style="rounded=0;whiteSpace=wrap;html=1;direction=west;fillColor=#dae8fc;strokeColor=default;" vertex="1" parent="1">
          <mxGeometry x="-3410" y="-1300" width="50" height="20" as="geometry" />
        </mxCell>
        <mxCell id="-ABMfCkV0aKxUMDqAIKD-611" value="a0" style="rounded=0;whiteSpace=wrap;html=1;strokeColor=default;" vertex="1" parent="1">
          <mxGeometry x="-4040" y="-1180" width="80" height="20" as="geometry" />
        </mxCell>
        <mxCell id="-ABMfCkV0aKxUMDqAIKD-612" value="a0" style="rounded=0;whiteSpace=wrap;html=1;strokeColor=default;" vertex="1" parent="1">
          <mxGeometry x="-3960" y="-1180" width="80" height="20" as="geometry" />
        </mxCell>
        <mxCell id="-ABMfCkV0aKxUMDqAIKD-613" value="a0" style="rounded=0;whiteSpace=wrap;html=1;strokeColor=default;" vertex="1" parent="1">
          <mxGeometry x="-3880" y="-1180" width="80" height="20" as="geometry" />
        </mxCell>
        <mxCell id="-ABMfCkV0aKxUMDqAIKD-614" value="a0" style="rounded=0;whiteSpace=wrap;html=1;strokeColor=default;" vertex="1" parent="1">
          <mxGeometry x="-3800" y="-1180" width="80" height="20" as="geometry" />
        </mxCell>
        <mxCell id="-ABMfCkV0aKxUMDqAIKD-615" value="g2" style="rounded=0;whiteSpace=wrap;html=1;fillColor=#d5e8d4;strokeColor=default;" vertex="1" parent="1">
          <mxGeometry x="-3990" y="-1300" width="60" height="20" as="geometry" />
        </mxCell>
        <mxCell id="-ABMfCkV0aKxUMDqAIKD-616" value="" style="rounded=0;whiteSpace=wrap;html=1;strokeColor=default;" vertex="1" parent="1">
          <mxGeometry x="-4040" y="-1300" width="50" height="20" as="geometry" />
        </mxCell>
        <mxCell id="-ABMfCkV0aKxUMDqAIKD-617" value="" style="rounded=0;whiteSpace=wrap;html=1;strokeColor=default;" vertex="1" parent="1">
          <mxGeometry x="-3930" y="-1300" width="50" height="20" as="geometry" />
        </mxCell>
        <mxCell id="-ABMfCkV0aKxUMDqAIKD-618" value="g0" style="rounded=0;whiteSpace=wrap;html=1;fillColor=#d5e8d4;strokeColor=default;" vertex="1" parent="1">
          <mxGeometry x="-3830" y="-1300" width="60" height="20" as="geometry" />
        </mxCell>
        <mxCell id="-ABMfCkV0aKxUMDqAIKD-619" value="" style="rounded=0;whiteSpace=wrap;html=1;strokeColor=default;" vertex="1" parent="1">
          <mxGeometry x="-3880" y="-1300" width="50" height="20" as="geometry" />
        </mxCell>
        <mxCell id="-ABMfCkV0aKxUMDqAIKD-620" value="" style="rounded=0;whiteSpace=wrap;html=1;strokeColor=default;" vertex="1" parent="1">
          <mxGeometry x="-3770" y="-1300" width="50" height="20" as="geometry" />
        </mxCell>
        <mxCell id="-ABMfCkV0aKxUMDqAIKD-621" value="x" style="ellipse;whiteSpace=wrap;html=1;aspect=fixed;" vertex="1" parent="1">
          <mxGeometry x="-3890" y="-1230" width="20" height="20" as="geometry" />
        </mxCell>
        <mxCell id="-ABMfCkV0aKxUMDqAIKD-622" value="" style="rounded=0;whiteSpace=wrap;html=1;strokeColor=default;" vertex="1" parent="1">
          <mxGeometry x="-3680" y="-1110" width="70" height="20" as="geometry" />
        </mxCell>
        <mxCell id="-ABMfCkV0aKxUMDqAIKD-623" value="b2" style="rounded=0;whiteSpace=wrap;html=1;direction=west;fillColor=#dae8fc;strokeColor=default;" vertex="1" parent="1">
          <mxGeometry x="-3560" y="-1110" width="40" height="20" as="geometry" />
        </mxCell>
        <mxCell id="-ABMfCkV0aKxUMDqAIKD-624" value="b3" style="rounded=0;whiteSpace=wrap;html=1;direction=west;fillColor=#dae8fc;strokeColor=default;" vertex="1" parent="1">
          <mxGeometry x="-3610" y="-1110" width="50" height="20" as="geometry" />
        </mxCell>
        <mxCell id="-ABMfCkV0aKxUMDqAIKD-625" value="" style="rounded=0;whiteSpace=wrap;html=1;strokeColor=default;" vertex="1" parent="1">
          <mxGeometry x="-3520" y="-1110" width="70" height="20" as="geometry" />
        </mxCell>
        <mxCell id="-ABMfCkV0aKxUMDqAIKD-626" value="b0" style="rounded=0;whiteSpace=wrap;html=1;direction=west;fillColor=#dae8fc;strokeColor=default;" vertex="1" parent="1">
          <mxGeometry x="-3400" y="-1110" width="40" height="20" as="geometry" />
        </mxCell>
        <mxCell id="-ABMfCkV0aKxUMDqAIKD-627" value="b1" style="rounded=0;whiteSpace=wrap;html=1;direction=west;fillColor=#dae8fc;strokeColor=default;" vertex="1" parent="1">
          <mxGeometry x="-3450" y="-1110" width="50" height="20" as="geometry" />
        </mxCell>
        <mxCell id="-ABMfCkV0aKxUMDqAIKD-628" value="g2" style="rounded=0;whiteSpace=wrap;html=1;fillColor=#d5e8d4;strokeColor=default;" vertex="1" parent="1">
          <mxGeometry x="-3970" y="-1110" width="40" height="20" as="geometry" />
        </mxCell>
        <mxCell id="-ABMfCkV0aKxUMDqAIKD-629" value="" style="rounded=0;whiteSpace=wrap;html=1;strokeColor=default;" vertex="1" parent="1">
          <mxGeometry x="-4040" y="-1110" width="10" height="20" as="geometry" />
        </mxCell>
        <mxCell id="-ABMfCkV0aKxUMDqAIKD-630" value="" style="rounded=0;whiteSpace=wrap;html=1;strokeColor=default;" vertex="1" parent="1">
          <mxGeometry x="-3930" y="-1110" width="50" height="20" as="geometry" />
        </mxCell>
        <mxCell id="-ABMfCkV0aKxUMDqAIKD-631" value="g3" style="rounded=0;whiteSpace=wrap;html=1;fillColor=#d5e8d4;strokeColor=default;" vertex="1" parent="1">
          <mxGeometry x="-4030" y="-1110" width="60" height="20" as="geometry" />
        </mxCell>
        <mxCell id="-ABMfCkV0aKxUMDqAIKD-632" value="g0" style="rounded=0;whiteSpace=wrap;html=1;fillColor=#d5e8d4;strokeColor=default;" vertex="1" parent="1">
          <mxGeometry x="-3810" y="-1110" width="40" height="20" as="geometry" />
        </mxCell>
        <mxCell id="-ABMfCkV0aKxUMDqAIKD-633" value="" style="rounded=0;whiteSpace=wrap;html=1;strokeColor=default;" vertex="1" parent="1">
          <mxGeometry x="-3880" y="-1110" width="10" height="20" as="geometry" />
        </mxCell>
        <mxCell id="-ABMfCkV0aKxUMDqAIKD-634" value="" style="rounded=0;whiteSpace=wrap;html=1;strokeColor=default;" vertex="1" parent="1">
          <mxGeometry x="-3770" y="-1110" width="50" height="20" as="geometry" />
        </mxCell>
        <mxCell id="-ABMfCkV0aKxUMDqAIKD-635" value="g1" style="rounded=0;whiteSpace=wrap;html=1;fillColor=#d5e8d4;strokeColor=default;" vertex="1" parent="1">
          <mxGeometry x="-3870" y="-1110" width="60" height="20" as="geometry" />
        </mxCell>
        <mxCell id="-ABMfCkV0aKxUMDqAIKD-636" value="" style="rounded=0;whiteSpace=wrap;html=1;strokeColor=default;" vertex="1" parent="1">
          <mxGeometry x="-3680" y="-1020" width="110" height="20" as="geometry" />
        </mxCell>
        <mxCell id="-ABMfCkV0aKxUMDqAIKD-637" style="rounded=0;orthogonalLoop=1;jettySize=auto;html=1;entryX=0;entryY=0;entryDx=0;entryDy=0;exitX=0;exitY=0;exitDx=0;exitDy=0;endArrow=none;endFill=0;" edge="1" parent="1" source="-ABMfCkV0aKxUMDqAIKD-639" target="-ABMfCkV0aKxUMDqAIKD-665">
          <mxGeometry relative="1" as="geometry" />
        </mxCell>
        <mxCell id="-ABMfCkV0aKxUMDqAIKD-638" value="" style="rounded=0;whiteSpace=wrap;html=1;strokeColor=default;" vertex="1" parent="1">
          <mxGeometry x="-3520" y="-1020" width="110" height="20" as="geometry" />
        </mxCell>
        <mxCell id="-ABMfCkV0aKxUMDqAIKD-639" value="b3" style="rounded=0;whiteSpace=wrap;html=1;direction=west;fillColor=#dae8fc;strokeColor=default;" vertex="1" parent="1">
          <mxGeometry x="-3570" y="-1020" width="50" height="20" as="geometry" />
        </mxCell>
        <mxCell id="-ABMfCkV0aKxUMDqAIKD-640" value="b1" style="rounded=0;whiteSpace=wrap;html=1;direction=west;fillColor=#dae8fc;strokeColor=default;" vertex="1" parent="1">
          <mxGeometry x="-3410" y="-1020" width="50" height="20" as="geometry" />
        </mxCell>
        <mxCell id="-ABMfCkV0aKxUMDqAIKD-641" value="" style="rounded=0;whiteSpace=wrap;html=1;strokeColor=default;" vertex="1" parent="1">
          <mxGeometry x="-4040" y="-1060" width="10" height="20" as="geometry" />
        </mxCell>
        <mxCell id="-ABMfCkV0aKxUMDqAIKD-642" value="" style="rounded=0;whiteSpace=wrap;html=1;strokeColor=default;" vertex="1" parent="1">
          <mxGeometry x="-3970" y="-1060" width="90" height="20" as="geometry" />
        </mxCell>
        <mxCell id="-ABMfCkV0aKxUMDqAIKD-643" value="g3" style="rounded=0;whiteSpace=wrap;html=1;fillColor=#d5e8d4;strokeColor=default;" vertex="1" parent="1">
          <mxGeometry x="-4030" y="-1060" width="60" height="20" as="geometry" />
        </mxCell>
        <mxCell id="-ABMfCkV0aKxUMDqAIKD-644" value="" style="rounded=0;whiteSpace=wrap;html=1;strokeColor=default;" vertex="1" parent="1">
          <mxGeometry x="-3880" y="-1060" width="10" height="20" as="geometry" />
        </mxCell>
        <mxCell id="-ABMfCkV0aKxUMDqAIKD-645" value="" style="rounded=0;whiteSpace=wrap;html=1;strokeColor=default;" vertex="1" parent="1">
          <mxGeometry x="-3810" y="-1060" width="90" height="20" as="geometry" />
        </mxCell>
        <mxCell id="-ABMfCkV0aKxUMDqAIKD-646" value="g1" style="rounded=0;whiteSpace=wrap;html=1;fillColor=#d5e8d4;strokeColor=default;" vertex="1" parent="1">
          <mxGeometry x="-3870" y="-1060" width="60" height="20" as="geometry" />
        </mxCell>
        <mxCell id="-ABMfCkV0aKxUMDqAIKD-647" value="g3" style="rounded=0;whiteSpace=wrap;html=1;fillColor=#d5e8d4;strokeColor=default;" vertex="1" parent="1">
          <mxGeometry x="-3990" y="-1020" width="60" height="20" as="geometry" />
        </mxCell>
        <mxCell id="-ABMfCkV0aKxUMDqAIKD-648" value="" style="rounded=0;whiteSpace=wrap;html=1;strokeColor=default;" vertex="1" parent="1">
          <mxGeometry x="-4040" y="-1020" width="50" height="20" as="geometry" />
        </mxCell>
        <mxCell id="-ABMfCkV0aKxUMDqAIKD-649" value="" style="rounded=0;whiteSpace=wrap;html=1;strokeColor=default;" vertex="1" parent="1">
          <mxGeometry x="-3930" y="-1020" width="50" height="20" as="geometry" />
        </mxCell>
        <mxCell id="-ABMfCkV0aKxUMDqAIKD-650" value="g1" style="rounded=0;whiteSpace=wrap;html=1;fillColor=#d5e8d4;strokeColor=default;" vertex="1" parent="1">
          <mxGeometry x="-3830" y="-1020" width="60" height="20" as="geometry" />
        </mxCell>
        <mxCell id="-ABMfCkV0aKxUMDqAIKD-651" style="rounded=0;orthogonalLoop=1;jettySize=auto;html=1;entryX=0;entryY=1;entryDx=0;entryDy=0;exitX=0;exitY=1;exitDx=0;exitDy=0;endArrow=none;endFill=0;" edge="1" parent="1" source="-ABMfCkV0aKxUMDqAIKD-652" target="-ABMfCkV0aKxUMDqAIKD-664">
          <mxGeometry relative="1" as="geometry" />
        </mxCell>
        <mxCell id="-ABMfCkV0aKxUMDqAIKD-652" value="" style="rounded=0;whiteSpace=wrap;html=1;strokeColor=default;" vertex="1" parent="1">
          <mxGeometry x="-3880" y="-1020" width="50" height="20" as="geometry" />
        </mxCell>
        <mxCell id="-ABMfCkV0aKxUMDqAIKD-653" value="" style="rounded=0;whiteSpace=wrap;html=1;strokeColor=default;" vertex="1" parent="1">
          <mxGeometry x="-3770" y="-1020" width="50" height="20" as="geometry" />
        </mxCell>
        <mxCell id="-ABMfCkV0aKxUMDqAIKD-654" value="" style="group" vertex="1" connectable="0" parent="1">
          <mxGeometry x="-4040" y="-1370" width="320" height="20" as="geometry" />
        </mxCell>
        <mxCell id="-ABMfCkV0aKxUMDqAIKD-655" value="r2" style="rounded=0;whiteSpace=wrap;html=1;fillColor=#f8cecc;strokeColor=default;" vertex="1" parent="-ABMfCkV0aKxUMDqAIKD-654">
          <mxGeometry width="50" height="20" as="geometry" />
        </mxCell>
        <mxCell id="-ABMfCkV0aKxUMDqAIKD-656" value="g2" style="rounded=0;whiteSpace=wrap;html=1;fillColor=#d5e8d4;strokeColor=default;" vertex="1" parent="-ABMfCkV0aKxUMDqAIKD-654">
          <mxGeometry x="50" width="60" height="20" as="geometry" />
        </mxCell>
        <mxCell id="-ABMfCkV0aKxUMDqAIKD-657" value="b2" style="rounded=0;whiteSpace=wrap;html=1;direction=west;fillColor=#dae8fc;strokeColor=default;" vertex="1" parent="-ABMfCkV0aKxUMDqAIKD-654">
          <mxGeometry x="110" width="50" height="20" as="geometry" />
        </mxCell>
        <mxCell id="-ABMfCkV0aKxUMDqAIKD-658" value="r0" style="rounded=0;whiteSpace=wrap;html=1;fillColor=#f8cecc;strokeColor=default;" vertex="1" parent="-ABMfCkV0aKxUMDqAIKD-654">
          <mxGeometry x="160" width="50" height="20" as="geometry" />
        </mxCell>
        <mxCell id="-ABMfCkV0aKxUMDqAIKD-659" value="g0" style="rounded=0;whiteSpace=wrap;html=1;fillColor=#d5e8d4;strokeColor=default;" vertex="1" parent="-ABMfCkV0aKxUMDqAIKD-654">
          <mxGeometry x="210" width="60" height="20" as="geometry" />
        </mxCell>
        <mxCell id="-ABMfCkV0aKxUMDqAIKD-660" value="b0" style="rounded=0;whiteSpace=wrap;html=1;direction=west;fillColor=#dae8fc;strokeColor=default;" vertex="1" parent="-ABMfCkV0aKxUMDqAIKD-654">
          <mxGeometry x="270" width="50" height="20" as="geometry" />
        </mxCell>
        <mxCell id="-ABMfCkV0aKxUMDqAIKD-661" value="" style="group" vertex="1" connectable="0" parent="1">
          <mxGeometry x="-4040" y="-890" width="320" height="20" as="geometry" />
        </mxCell>
        <mxCell id="-ABMfCkV0aKxUMDqAIKD-662" value="r3" style="rounded=0;whiteSpace=wrap;html=1;fillColor=#f8cecc;strokeColor=default;" vertex="1" parent="-ABMfCkV0aKxUMDqAIKD-661">
          <mxGeometry width="50" height="20" as="geometry" />
        </mxCell>
        <mxCell id="-ABMfCkV0aKxUMDqAIKD-663" value="g3" style="rounded=0;whiteSpace=wrap;html=1;fillColor=#d5e8d4;strokeColor=default;" vertex="1" parent="-ABMfCkV0aKxUMDqAIKD-661">
          <mxGeometry x="50" width="60" height="20" as="geometry" />
        </mxCell>
        <mxCell id="-ABMfCkV0aKxUMDqAIKD-664" value="b3" style="rounded=0;whiteSpace=wrap;html=1;direction=west;fillColor=#dae8fc;strokeColor=default;" vertex="1" parent="-ABMfCkV0aKxUMDqAIKD-661">
          <mxGeometry x="110" width="50" height="20" as="geometry" />
        </mxCell>
        <mxCell id="-ABMfCkV0aKxUMDqAIKD-665" value="r1" style="rounded=0;whiteSpace=wrap;html=1;fillColor=#f8cecc;strokeColor=default;" vertex="1" parent="-ABMfCkV0aKxUMDqAIKD-661">
          <mxGeometry x="160" width="50" height="20" as="geometry" />
        </mxCell>
        <mxCell id="-ABMfCkV0aKxUMDqAIKD-666" value="g1" style="rounded=0;whiteSpace=wrap;html=1;fillColor=#d5e8d4;strokeColor=default;" vertex="1" parent="-ABMfCkV0aKxUMDqAIKD-661">
          <mxGeometry x="210" width="60" height="20" as="geometry" />
        </mxCell>
        <mxCell id="-ABMfCkV0aKxUMDqAIKD-667" value="b1" style="rounded=0;whiteSpace=wrap;html=1;direction=west;fillColor=#dae8fc;strokeColor=default;" vertex="1" parent="-ABMfCkV0aKxUMDqAIKD-661">
          <mxGeometry x="270" width="50" height="20" as="geometry" />
        </mxCell>
        <mxCell id="-ABMfCkV0aKxUMDqAIKD-668" style="rounded=0;orthogonalLoop=1;jettySize=auto;html=1;entryX=0;entryY=0;entryDx=0;entryDy=0;exitX=0;exitY=1;exitDx=0;exitDy=0;endArrow=none;endFill=0;" edge="1" parent="1" source="-ABMfCkV0aKxUMDqAIKD-658" target="-ABMfCkV0aKxUMDqAIKD-619">
          <mxGeometry relative="1" as="geometry" />
        </mxCell>
        <mxCell id="-ABMfCkV0aKxUMDqAIKD-669" style="rounded=0;orthogonalLoop=1;jettySize=auto;html=1;entryX=0;entryY=0;entryDx=0;entryDy=0;endArrow=none;endFill=0;" edge="1" parent="1" target="-ABMfCkV0aKxUMDqAIKD-608">
          <mxGeometry relative="1" as="geometry">
            <mxPoint x="-3880" y="-1350" as="sourcePoint" />
          </mxGeometry>
        </mxCell>
        <mxCell id="-ABMfCkV0aKxUMDqAIKD-686" style="edgeStyle=orthogonalEdgeStyle;rounded=0;orthogonalLoop=1;jettySize=auto;html=1;entryX=0;entryY=0.5;entryDx=0;entryDy=0;curved=1;exitX=0.5;exitY=1;exitDx=0;exitDy=0;" edge="1" parent="1" source="-ABMfCkV0aKxUMDqAIKD-677" target="-ABMfCkV0aKxUMDqAIKD-403">
          <mxGeometry relative="1" as="geometry" />
        </mxCell>
        <mxCell id="-ABMfCkV0aKxUMDqAIKD-677" value="part2" style="rounded=1;whiteSpace=wrap;html=1;" vertex="1" parent="1">
          <mxGeometry x="-4362.5" y="-330" width="135" height="30" as="geometry" />
        </mxCell>
        <mxCell id="-ABMfCkV0aKxUMDqAIKD-684" value="" style="edgeStyle=orthogonalEdgeStyle;rounded=0;orthogonalLoop=1;jettySize=auto;html=1;entryX=0;entryY=1;entryDx=0;entryDy=0;curved=1;" edge="1" parent="1" source="-ABMfCkV0aKxUMDqAIKD-677" target="-ABMfCkV0aKxUMDqAIKD-679">
          <mxGeometry relative="1" as="geometry">
            <mxPoint x="-4125" y="-300" as="sourcePoint" />
          </mxGeometry>
        </mxCell>
        <mxCell id="-ABMfCkV0aKxUMDqAIKD-679" value="b3" style="rounded=0;whiteSpace=wrap;html=1;direction=west;fillColor=#dae8fc;strokeColor=default;" vertex="1" parent="1">
          <mxGeometry x="-4100" y="-240" width="50" height="20" as="geometry" />
        </mxCell>
        <mxCell id="-ABMfCkV0aKxUMDqAIKD-680" value="b1" style="rounded=0;whiteSpace=wrap;html=1;direction=west;fillColor=#dae8fc;strokeColor=default;" vertex="1" parent="1">
          <mxGeometry x="-3940" y="-240" width="50" height="20" as="geometry" />
        </mxCell>
        <mxCell id="-ABMfCkV0aKxUMDqAIKD-687" value="8h,0" style="rounded=0;whiteSpace=wrap;html=1;" vertex="1" parent="1">
          <mxGeometry x="800" y="-3260" width="320" height="20" as="geometry" />
        </mxCell>
        <mxCell id="-ABMfCkV0aKxUMDqAIKD-688" value="v0" style="rounded=0;whiteSpace=wrap;html=1;" vertex="1" parent="1">
          <mxGeometry x="800" y="-3220" width="320" height="20" as="geometry" />
        </mxCell>
        <mxCell id="-ABMfCkV0aKxUMDqAIKD-689" value="v1" style="rounded=0;whiteSpace=wrap;html=1;" vertex="1" parent="1">
          <mxGeometry x="800" y="-3180" width="320" height="20" as="geometry" />
        </mxCell>
        <mxCell id="-ABMfCkV0aKxUMDqAIKD-690" value="v2" style="rounded=0;whiteSpace=wrap;html=1;" vertex="1" parent="1">
          <mxGeometry x="1130" y="-3220" width="320" height="20" as="geometry" />
        </mxCell>
        <mxCell id="-ABMfCkV0aKxUMDqAIKD-691" value="v3" style="rounded=0;whiteSpace=wrap;html=1;" vertex="1" parent="1">
          <mxGeometry x="1130" y="-3180" width="320" height="20" as="geometry" />
        </mxCell>
      </root>
    </mxGraphModel>
  </diagram>
</mxfile>
